<svg width="180" height="50" viewBox="0 0 180 50" fill="none" xmlns="http://www.w3.org/2000/svg">
<path d="M179.52 35.5556C179.483 35.7042 179.446 35.8582 179.409 36.0068C179.111 37.1852 177.96 37.6522 177.116 37.5408C175.863 37.3709 175.136 36.3624 175.242 35.2318C175.337 34.2127 176.272 33.4006 177.333 33.3953C178.453 33.39 179.34 34.1437 179.462 35.2C179.467 35.269 179.504 35.3327 179.525 35.3964C179.52 35.4495 179.52 35.5025 179.52 35.5556ZM175.576 35.4654C175.576 36.4314 176.367 37.2117 177.354 37.217C178.342 37.2223 179.164 36.4155 179.154 35.4548C179.143 34.4993 178.352 33.735 177.37 33.735C176.372 33.735 175.576 34.4993 175.576 35.4654ZM99.1367 37.4559C97.8203 37.4559 96.4986 37.4559 95.1823 37.4559C94.7629 37.4559 94.8266 37.4983 94.8213 37.0843C94.8213 36.8826 94.8372 36.6756 94.816 36.4739C94.7948 36.2403 94.8903 36.1979 95.1026 36.1979C95.453 36.1979 95.8139 36.1926 96.1536 36.1236C97.2258 35.9059 97.6929 35.1841 97.3798 34.1437C97.0666 33.0927 96.6738 32.063 96.3235 31.0173C96.2651 30.8475 96.1802 30.8952 96.0634 30.9271C95.1239 31.1447 94.1897 31.4367 93.2343 31.5428C92.2576 31.6543 91.2597 31.6065 90.2724 31.5747C89.2745 31.5428 88.3032 31.3093 87.3584 30.9961C87.2522 30.9642 87.162 30.943 87.1142 31.0916C86.7851 32.0683 86.4295 33.0343 86.1216 34.0163C86.0367 34.287 86.0261 34.5949 86.0579 34.8762C86.1641 35.7892 86.8329 36.0811 87.6768 36.1607C88.0006 36.1926 88.3297 36.1979 88.6535 36.2032C88.8234 36.2032 88.8658 36.2828 88.8605 36.4314C88.8552 36.6968 88.8499 36.9622 88.8605 37.2276C88.8711 37.4134 88.8021 37.4665 88.6163 37.4665C87.6875 37.4559 86.7586 37.4612 85.8297 37.4612C84.3806 37.4612 82.9262 37.4559 81.4772 37.4665C81.2277 37.4665 81.1534 37.3922 81.1746 37.1533C81.1959 36.9144 81.1905 36.6756 81.1746 36.4367C81.164 36.2456 81.2383 36.2032 81.4188 36.1979C81.7373 36.1873 82.0504 36.166 82.3636 36.1236C82.7723 36.0705 83.1173 35.8529 83.3031 35.4972C83.6853 34.7647 84.0409 34.0163 84.3541 33.252C84.7309 32.3337 85.0494 31.3889 85.4104 30.46C85.4794 30.2795 85.4634 30.184 85.283 30.0884C81.9974 28.236 80.0228 25.3909 79.0621 21.7921C78.786 20.7677 78.6534 19.722 78.6162 18.6604C78.4994 15.3483 79.2638 12.2856 81.1693 9.54141C82.5971 7.47662 84.4708 5.89486 86.6099 4.61565C89.1365 3.10819 91.8595 2.08376 94.7099 1.40965C96.3659 1.01686 98.0539 0.730235 99.7365 0.454223C100.681 0.300292 101.647 0.257829 102.603 0.167594C104.471 -0.0128759 106.345 -0.0234918 108.213 0.0242796C109.365 0.0561272 110.522 0.135746 111.663 0.284369C113.442 0.51261 115.225 0.746159 116.982 1.09648C120.416 1.7759 123.75 2.81625 126.977 4.16978C129.88 5.3853 132.667 6.83436 135.215 8.69745C135.305 8.76645 135.363 8.87261 135.438 8.96285C135.321 8.93631 135.193 8.94162 135.087 8.88854C130.507 6.46281 125.682 4.69526 120.629 3.56467C119.036 3.20904 117.417 2.93834 115.804 2.69948C114.455 2.50309 113.091 2.39693 111.732 2.26423C109.705 2.07314 107.672 2.07314 105.644 2.12622C104.572 2.15276 103.494 2.22177 102.422 2.32792C98.6696 2.68886 94.9859 3.3789 91.4614 4.76427C89.2215 5.64539 87.1248 6.77598 85.2936 8.36305C83.0006 10.3588 81.4984 12.8217 80.9358 15.826C80.7394 16.8876 80.6491 17.9651 80.7234 19.0426C80.9782 22.9174 82.5865 26.0703 85.8084 28.3262C86.111 28.5385 86.1163 28.5332 86.2437 28.1882C87.8626 23.8569 89.4815 19.5309 91.0899 15.1944C91.1854 14.9396 91.3022 14.8653 91.5623 14.8759C92.1567 14.8971 92.7459 14.8971 93.3404 14.8759C93.5846 14.8653 93.6907 14.9449 93.7757 15.1731C95.1345 18.9152 96.4986 22.652 97.8628 26.3888C98.0857 26.9939 98.3139 27.5937 98.521 28.1988C98.59 28.4005 98.659 28.4164 98.8288 28.2997C100.342 27.2699 101.525 25.9482 102.396 24.3399C102.582 24.0002 102.735 23.6393 102.905 23.2943C102.942 23.2147 103.011 23.151 103.07 23.082C103.08 23.1722 103.128 23.273 103.102 23.3527C102.9 24.0321 102.741 24.7327 102.459 25.3856C101.764 26.9939 100.644 28.2784 99.2269 29.3029C99.0783 29.409 98.9934 29.4939 99.073 29.7063C99.6834 31.3464 100.278 32.9972 100.888 34.6373C100.968 34.8603 101.079 35.0726 101.196 35.2796C101.52 35.8635 102.04 36.1342 102.693 36.166C102.815 36.1713 102.937 36.1926 103.059 36.2032C103.489 36.2403 103.489 36.2403 103.484 36.6756C103.479 36.9304 103.553 37.2595 103.42 37.4081C103.309 37.5355 102.958 37.4559 102.709 37.4559C101.525 37.4559 100.331 37.4559 99.1367 37.4559ZM91.817 18.2358C91.7533 18.3844 91.7162 18.4534 91.6897 18.5278C90.4051 22.0469 89.1259 25.5714 87.8361 29.0905C87.7565 29.3029 87.8095 29.3825 88.0112 29.4568C89.1578 29.8974 90.3414 30.1415 91.5623 30.2052C92.9052 30.2742 94.2375 30.1362 95.5432 29.7859C95.867 29.701 95.867 29.701 95.7555 29.3878C94.6409 26.2243 93.5262 23.066 92.4115 19.9025C92.2257 19.3717 92.0347 18.8409 91.817 18.2358ZM3.64688 17.0734C3.67873 17.1636 3.71588 17.2485 3.74773 17.3388C5.38788 21.8452 7.03335 26.3516 8.6735 30.8581C9.40069 32.8592 10.1332 34.8603 10.8498 36.8614C10.9241 37.0684 11.0249 37.148 11.2478 37.1374C11.6247 37.1161 12.0069 37.1215 12.3891 37.1374C12.5748 37.1427 12.6651 37.0896 12.7341 36.9038C14.9475 30.7148 17.1609 24.5257 19.3796 18.3367C19.5388 17.8961 19.7034 17.4555 19.8626 17.015C19.8839 17.0203 19.9051 17.0203 19.9316 17.0256C19.9316 17.1265 19.9316 17.2273 19.9316 17.3282C19.9316 19.6743 19.9316 22.0151 19.9316 24.3612C19.9316 27.7423 19.9316 31.1182 19.9316 34.4993C19.9316 35.3114 19.6397 35.6671 18.8594 35.821C18.732 35.8475 18.594 35.8422 18.4613 35.8369C18.3233 35.8316 18.2703 35.8847 18.2703 36.0174C18.2756 36.2987 18.2809 36.5854 18.2649 36.8667C18.2543 37.0684 18.318 37.1374 18.5303 37.1374C19.8308 37.1268 21.1312 37.1321 22.4317 37.1321C23.0845 37.1321 23.7427 37.1268 24.3956 37.1374C24.5655 37.1374 24.6345 37.0896 24.6238 36.9144C24.6132 36.7021 24.6185 36.4898 24.6185 36.2775C24.6185 35.8582 24.6185 35.8794 24.1886 35.8316C23.4296 35.7573 23.1058 35.5025 22.9837 34.839C22.9412 34.6055 22.9306 34.3666 22.9306 34.1278C22.9253 28.6181 22.9306 23.1085 22.9306 17.5936C22.9306 17.3547 22.9465 17.1158 22.9784 16.8823C23.0474 16.3568 23.3393 16.033 23.8542 15.9162C24.0241 15.8791 24.2045 15.8472 24.3797 15.8525C24.5867 15.8632 24.6345 15.7782 24.6238 15.5872C24.6079 15.3324 24.6026 15.0723 24.6238 14.8175C24.6398 14.584 24.5495 14.5415 24.3372 14.5468C22.6493 14.5574 20.9561 14.5574 19.2681 14.5468C19.0346 14.5468 18.9337 14.6158 18.8541 14.8334C16.9114 20.2688 14.9634 25.7041 13.0154 31.1394C12.8402 31.633 12.6545 32.1267 12.4527 32.6893C12.3837 32.5407 12.3413 32.4558 12.3094 32.3655C10.8922 28.4536 9.475 24.5363 8.05778 20.6244C7.35182 18.6711 6.64056 16.7177 5.93991 14.7644C5.89745 14.6423 5.8656 14.5521 5.69574 14.5521C3.86451 14.5574 2.03327 14.5574 0.202029 14.5521C0.0427908 14.5521 0.00563521 14.6158 0.00563521 14.7591C0.0109432 15.0511 0.0109432 15.343 0.00563521 15.6349C0.000327277 15.7889 0.0427908 15.8579 0.212645 15.8579C0.377191 15.8579 0.547045 15.8844 0.711591 15.9109C1.24238 16.0065 1.51309 16.2719 1.61394 16.808C1.64579 16.9619 1.66171 17.1211 1.66171 17.2804C1.66702 19.1222 1.66171 20.9588 1.66171 22.8006C1.66171 26.702 1.66171 30.6033 1.66171 34.5046C1.66171 35.3168 1.36978 35.6724 0.589508 35.8263C0.462118 35.8529 0.324111 35.8475 0.191413 35.8422C0.0534067 35.8369 0.000327277 35.89 0.000327277 36.0227C0.00563521 36.3146 0.0109432 36.6066 0.000327277 36.8985C-0.00498066 37.079 0.0534067 37.148 0.239184 37.1427C0.674435 37.1321 1.10438 37.1374 1.53963 37.1374C2.69145 37.1374 3.83797 37.1321 4.98979 37.1427C5.18618 37.1427 5.26049 37.0949 5.24457 36.8932C5.22865 36.6809 5.23926 36.4686 5.23926 36.2563C5.23926 35.8582 5.23926 35.8582 4.83586 35.8422C4.1299 35.821 3.71588 35.4919 3.60442 34.8443C3.56195 34.6108 3.55134 34.3719 3.55134 34.1331C3.54603 28.5438 3.55134 22.9546 3.55134 17.36C3.55134 17.2698 3.55134 17.1795 3.55134 17.084C3.58849 17.0787 3.61503 17.0787 3.64688 17.0734ZM121.977 19.722C122.003 19.807 122.03 19.8866 122.056 19.9715C122.799 22.5193 123.543 25.0724 124.286 27.6202C125.188 30.7095 126.09 33.7987 126.982 36.8879C127.041 37.0896 127.125 37.1427 127.327 37.1427C128.07 37.1321 128.813 37.1268 129.556 37.1427C129.779 37.148 129.859 37.0684 129.917 36.8667C131.6 31.012 133.283 25.1521 134.981 19.3027C135.199 18.5437 135.475 17.8006 135.793 17.0787C136.022 16.5479 136.483 16.24 137.078 16.1763C137.237 16.1604 137.264 16.0808 137.258 15.9481C137.253 15.6668 137.248 15.3801 137.258 15.0988C137.269 14.9237 137.205 14.8706 137.035 14.8759C136.229 14.8865 135.427 14.8812 134.62 14.8812C133.362 14.8812 132.11 14.8865 130.852 14.8759C130.634 14.8759 130.57 14.9449 130.586 15.1466C130.602 15.3589 130.586 15.5712 130.592 15.7835C130.592 16.1339 130.592 16.1179 130.931 16.1392C131.404 16.171 131.887 16.1816 132.343 16.2931C133.176 16.4895 133.437 17.1742 133.341 17.8908C133.277 18.3791 133.155 18.8568 133.017 19.3292C131.696 23.8728 130.363 28.4111 129.036 32.9494C129.01 33.0343 128.973 33.1193 128.914 33.2626C128.866 33.114 128.84 33.029 128.813 32.9494C128.001 30.1362 127.189 27.323 126.372 24.5098C125.491 21.4524 124.604 18.3951 123.723 15.3377C123.67 15.1572 123.606 15.0776 123.405 15.0829C122.831 15.0988 122.253 15.0988 121.679 15.0829C121.483 15.0776 121.403 15.1413 121.356 15.3271C121.212 15.9003 121.053 16.463 120.899 17.0362C119.524 22.1478 118.155 27.2593 116.78 32.3708C116.663 32.8114 116.536 33.2467 116.414 33.6819C116.329 33.6023 116.303 33.5227 116.276 33.4431C115.39 30.2954 114.503 27.1478 113.622 24.0002C113.065 22.0204 112.486 20.0458 111.977 18.0553C111.748 17.1689 112.088 16.3887 113.097 16.2241C113.495 16.1604 113.903 16.1551 114.307 16.1392C114.477 16.1339 114.54 16.0861 114.535 15.9109C114.524 15.6562 114.519 15.3961 114.535 15.1413C114.551 14.929 114.477 14.8759 114.27 14.8759C112.704 14.8865 111.138 14.8812 109.572 14.8812C108.447 14.8812 107.327 14.8865 106.202 14.8759C106.021 14.8759 105.947 14.9184 105.963 15.1094C105.979 15.3005 105.968 15.4969 105.968 15.6933C105.968 16.1286 105.968 16.1126 106.403 16.1339C107.433 16.1923 108.07 16.309 108.51 17.6042C108.792 18.4269 109.015 19.2709 109.264 20.1042C110.915 25.6882 112.566 31.2668 114.211 36.8507C114.28 37.0843 114.381 37.148 114.615 37.1427C115.347 37.1268 116.085 37.1268 116.817 37.1427C117.072 37.148 117.184 37.0737 117.253 36.8189C118.718 31.4048 120.193 25.996 121.669 20.5872C121.749 20.2953 121.839 20.0034 121.918 19.7114C121.934 19.7114 121.956 19.7167 121.977 19.722ZM161.882 22.4981C161.882 22.3972 161.882 22.2964 161.882 22.1902C161.882 19.2974 161.882 16.4046 161.882 13.5117C161.882 13.4427 161.877 13.3684 161.882 13.2994C161.892 13.1667 161.845 13.1137 161.701 13.1137C160.279 13.119 158.851 13.119 157.428 13.1137C157.296 13.1137 157.237 13.1455 157.237 13.2941C157.248 13.5967 157.248 13.8939 157.237 14.1965C157.232 14.361 157.306 14.4194 157.46 14.4141C157.551 14.4088 157.635 14.4088 157.726 14.4141C158.352 14.4513 158.771 14.7697 158.872 15.3218C158.915 15.5447 158.936 15.7782 158.936 16.0065C158.941 22.0841 158.936 28.1617 158.936 34.2339C158.936 34.3029 158.941 34.3773 158.936 34.4463C158.851 35.1628 158.809 35.6458 157.842 35.8157C157.731 35.8369 157.614 35.8475 157.497 35.8316C157.275 35.8051 157.227 35.9006 157.237 36.1023C157.253 36.3465 157.259 36.6013 157.237 36.8454C157.216 37.0843 157.301 37.1374 157.535 37.1374C159.249 37.1268 160.969 37.1321 162.683 37.1321C162.954 37.1321 163.342 37.217 163.469 37.079C163.612 36.9144 163.538 36.5482 163.538 36.2669C163.543 35.8529 163.538 35.8529 163.124 35.8369C162.482 35.8051 162.046 35.4972 161.946 34.9717C161.908 34.7753 161.887 34.5683 161.887 34.3666C161.882 31.9356 161.882 29.4993 161.887 27.0682C161.892 26.1712 162.046 25.2954 162.37 24.4567C162.763 23.4376 163.357 22.5777 164.398 22.1265C164.992 21.8664 165.613 21.824 166.261 21.8877C167.466 22.0098 168.368 22.5406 168.841 23.6924C169.111 24.3506 169.228 25.0512 169.233 25.7572C169.249 28.7721 169.228 31.787 169.249 34.8072C169.255 35.7839 169.653 36.6013 170.518 37.1108C171.309 37.5779 172.179 37.6735 173.071 37.4293C173.538 37.2966 173.899 36.9994 174.138 36.5747C174.265 36.3465 174.249 36.32 173.989 36.3146C173.204 36.2881 172.577 35.8422 172.338 35.0938C172.248 34.8072 172.185 34.494 172.185 34.1915C172.174 31.511 172.2 28.8305 172.163 26.1499C172.153 25.3378 172.062 24.5098 171.898 23.7136C171.611 22.3495 170.921 21.2242 169.642 20.5395C168.904 20.1467 168.113 19.9662 167.285 19.9184C166.383 19.8707 165.486 19.9025 164.621 20.1998C163.416 20.6085 162.524 21.3834 161.951 22.5193C161.924 22.5087 161.903 22.5034 161.882 22.4981ZM46.3333 13.4003C46.3333 13.1667 46.2696 13.103 46.0361 13.103C44.7993 13.1137 43.5573 13.1083 42.3205 13.1083C41.726 13.1083 41.726 13.1083 41.726 13.7135C41.726 14.3398 41.726 14.3398 42.3417 14.4194C42.9044 14.4937 43.2335 14.791 43.3343 15.3536C43.3715 15.5606 43.3874 15.7729 43.3874 15.9852C43.3874 22.0735 43.3874 28.1563 43.3874 34.2446C43.3874 34.3666 43.398 34.494 43.3821 34.6161C43.3131 35.2318 43.1645 35.6671 42.3736 35.7998C42.225 35.8263 42.0763 35.8422 41.9277 35.8369C41.7791 35.8316 41.7207 35.8847 41.726 36.0333C41.7313 36.3359 41.7366 36.6331 41.726 36.9357C41.7207 37.1108 41.8003 37.1427 41.949 37.1374C42.2568 37.1321 42.57 37.1374 42.8778 37.1374C44.5074 37.1374 46.1316 37.1321 47.7612 37.1427C47.9682 37.1427 48.0425 37.0896 48.0265 36.8773C48.0106 36.596 48.0159 36.3093 48.0265 36.028C48.0319 35.8953 47.9894 35.8263 47.8461 35.8422C47.7558 35.8529 47.6709 35.8475 47.5807 35.8422C46.9225 35.8104 46.5244 35.5131 46.397 34.9452C46.3545 34.7647 46.328 34.579 46.328 34.3932C46.3227 33.4643 46.3227 32.5354 46.328 31.6065C46.328 31.5163 46.3599 31.4101 46.4182 31.3464C47.0446 30.6352 47.6815 29.9345 48.3079 29.2285C48.4034 29.1224 48.4618 29.1118 48.5414 29.2445C48.637 29.4143 48.7484 29.5736 48.8599 29.7328C49.9905 31.442 51.0998 33.167 52.2623 34.8497C52.7081 35.4919 53.2496 36.0758 53.791 36.6437C54.5341 37.4187 55.5054 37.5567 56.5086 37.4346C57.3154 37.3391 57.8781 36.8773 58.1647 36.0917C58.2284 35.9165 58.2231 35.8316 58.0002 35.8422C57.5649 35.8635 57.1668 35.7308 56.7846 35.5291C56.1371 35.1841 55.6328 34.6692 55.2241 34.08C53.6317 31.7657 52.0659 29.4356 50.4894 27.1107C50.3886 26.9674 50.4629 26.8878 50.5478 26.7975C50.9459 26.3516 51.3387 25.8899 51.7474 25.4493C52.5489 24.5894 53.3398 23.7189 54.1784 22.8962C54.9534 22.1371 55.8398 21.5533 56.9704 21.4737C57.0129 21.4683 57.0872 21.3728 57.0872 21.3197C57.0978 21.0012 57.0872 20.6828 57.0978 20.3643C57.1031 20.2263 57.05 20.1838 56.912 20.1838C54.9587 20.1891 53.0001 20.1891 51.0468 20.1838C50.8928 20.1838 50.8451 20.2422 50.8504 20.3855C50.8557 20.6775 50.861 20.9694 50.8504 21.2613C50.8451 21.4365 50.9141 21.479 51.0839 21.4896C51.3281 21.5055 51.5776 21.5427 51.8111 21.6117C52.1933 21.7231 52.3207 22.0098 52.1455 22.376C52.0234 22.6255 51.8642 22.8696 51.6837 23.0767C50.5425 24.3452 49.3907 25.6032 48.2442 26.8665C47.6868 27.4822 47.1242 28.0927 46.5616 28.7031C46.5138 28.7561 46.4395 28.788 46.3758 28.8305C46.3599 28.7561 46.3439 28.6818 46.3333 28.6075C46.328 28.5544 46.3333 28.5014 46.3333 28.4483C46.3333 25.9642 46.3333 23.4747 46.3333 20.9906C46.328 18.4587 46.328 15.9269 46.3333 13.4003ZM38.589 29.1914C38.589 30.6935 38.5784 32.201 38.5943 33.7031C38.5997 34.08 38.6474 34.4622 38.7377 34.8231C38.9553 35.6724 39.5285 36.0227 40.399 35.8953C40.6379 35.8582 40.6804 35.9006 40.6273 36.1395C40.468 36.8348 39.9213 37.2754 39.1676 37.4028C37.5328 37.6788 36.6994 36.7287 36.227 35.5344C36.1049 35.2265 36.0412 34.8921 35.9457 34.5736C35.9351 34.5365 35.9085 34.5046 35.8873 34.4675C35.8554 34.494 35.813 34.5153 35.7971 34.5471C35.744 34.6267 35.7015 34.717 35.6591 34.8019C34.9903 36.1289 33.918 36.9251 32.4743 37.2382C31.3702 37.4771 30.2609 37.5142 29.1515 37.2435C27.3256 36.7924 26.2959 35.5821 25.9243 33.7828C25.7385 32.8857 25.7385 31.9781 25.9402 31.0757C26.2268 29.8018 27.0124 28.9154 28.1536 28.3209C29.1515 27.8007 30.2184 27.5353 31.3278 27.392C32.6707 27.2168 34.0242 27.2328 35.3724 27.2434C35.6007 27.2434 35.6856 27.1903 35.675 26.9514C35.6484 26.0863 35.6591 25.2211 35.6219 24.3559C35.606 23.9737 35.5476 23.5809 35.4467 23.2094C35.123 22.0151 34.3374 21.532 33.2758 21.4365C32.745 21.3887 32.193 21.4206 31.6728 21.5214C30.5475 21.7391 30.0273 22.5512 29.8734 23.5703C29.815 23.9418 29.8044 24.324 29.7619 24.7009C29.7566 24.7593 29.6823 24.8548 29.6505 24.8495C29.1834 24.7805 28.7003 24.7487 28.2545 24.6106C27.5061 24.3771 27.177 23.8357 27.1345 23.0554C27.0761 21.9089 27.6547 21.1711 28.6048 20.6615C29.2577 20.3165 29.9636 20.1148 30.6908 20.0299C31.487 19.9344 32.2938 19.8494 33.09 19.876C33.8862 19.9025 34.693 19.998 35.4627 20.1944C37.1187 20.6244 38.0848 21.7603 38.4033 23.4217C38.5253 24.0745 38.5625 24.7487 38.5784 25.4175C38.6103 26.6807 38.589 27.9387 38.589 29.1914ZM35.7546 29.9664C35.7281 29.961 35.7015 29.961 35.6803 29.9557C35.6803 29.5948 35.6697 29.2286 35.6856 28.8676C35.6962 28.6447 35.606 28.581 35.3883 28.5863C34.8416 28.5969 34.2896 28.5704 33.7429 28.5969C32.8989 28.6288 32.055 28.7031 31.2428 28.9685C30.1229 29.3294 29.2948 29.9876 28.9976 31.1819C28.7959 31.9993 28.764 32.822 28.9392 33.6448C29.1356 34.5736 29.6399 35.2637 30.6165 35.4388C31.1261 35.5291 31.6728 35.5238 32.193 35.4654C33.8384 35.2796 35.0911 34.2074 35.4627 32.5885C35.6537 31.7339 35.6591 30.8369 35.7546 29.9664ZM66.0523 28.857C64.3962 28.857 62.7455 28.8623 61.0894 28.8517C60.8081 28.8517 60.7444 28.9366 60.755 29.1967C60.8081 30.3698 60.9301 31.5322 61.3442 32.6416C61.9758 34.3507 63.1542 35.3433 65.0173 35.476C66.7742 35.5981 68.3082 35.1044 69.5768 33.8677C69.7095 33.7403 69.8316 33.597 69.9324 33.4377C70.0333 33.2838 70.1129 33.321 70.219 33.4165C70.5906 33.7562 70.7074 34.3613 70.5004 34.9133C70.2721 35.5078 69.8634 35.9484 69.3485 36.2987C68.4621 36.8985 67.4748 37.2223 66.4239 37.3603C65.0863 37.5408 63.7646 37.4824 62.4801 37.0524C60.4896 36.389 59.2104 35.0036 58.462 33.0821C57.8356 31.4844 57.7188 29.8124 57.7613 28.1192C57.7985 26.6754 57.9895 25.2582 58.531 23.91C59.4227 21.6913 61.0416 20.3378 63.4196 19.9874C64.8633 19.7751 66.3071 19.8494 67.6765 20.4439C69.322 21.1605 70.2987 22.4556 70.8401 24.117C71.1055 24.9344 71.2488 25.7731 71.2753 26.633C71.2912 27.2699 71.2965 27.9069 71.3284 28.5385C71.339 28.788 71.2753 28.8676 71.0152 28.8623C69.3645 28.8464 67.7084 28.857 66.0523 28.857ZM64.4599 27.1903C65.6011 27.1903 66.7423 27.185 67.8835 27.1956C68.1065 27.1956 68.1861 27.1266 68.1649 26.909C68.1436 26.6967 68.133 26.4897 68.1224 26.2773C68.0799 25.3856 67.9472 24.5098 67.6341 23.6658C66.9334 21.7921 65.3464 21.2136 63.6319 21.6966C62.6234 21.9779 62.0077 22.721 61.583 23.634C61.0894 24.6956 60.9355 25.8368 60.8187 26.9886C60.7974 27.1956 60.9195 27.1903 61.0628 27.1903C62.1934 27.185 63.3293 27.1903 64.4599 27.1903ZM151.781 37.2276C152.736 37.0525 153.623 36.6809 154.366 36.028C155.496 35.0301 155.884 33.7456 155.847 32.2753C155.81 30.7519 155.178 29.563 153.915 28.7402C153.23 28.2944 152.497 27.9175 151.76 27.5619C150.815 27.1054 149.833 26.7338 148.893 26.2773C147.832 25.7572 147.067 25.0194 147.168 23.6924C147.243 22.7369 147.635 22.0257 148.527 21.6329C149.122 21.3675 149.753 21.2879 150.39 21.3303C151.521 21.4047 152.328 21.8293 152.72 23.1244C152.853 23.5544 152.88 24.0215 152.938 24.4726C152.954 24.5841 152.943 24.6796 153.102 24.6743C153.564 24.669 154 24.5788 154.387 24.3293C155.21 23.7985 155.438 22.6945 154.918 21.7444C154.472 20.9163 153.708 20.5076 152.853 20.2422C151.855 19.929 150.836 19.876 149.796 19.9556C148.984 20.0193 148.193 20.1573 147.428 20.4492C145.783 21.0809 144.705 22.3389 144.636 24.186C144.573 25.9642 145.241 27.3389 146.77 28.2466C147.646 28.7668 148.585 29.1861 149.493 29.6532C150.395 30.1097 151.319 30.5343 152.2 31.0332C152.991 31.4844 153.331 32.201 153.32 33.1352C153.309 34.356 152.561 35.3274 151.537 35.6989C150.794 35.9696 150.035 36.0492 149.254 35.959C148.341 35.8529 147.582 35.4813 147.057 34.7063C146.542 33.9579 146.399 33.1033 146.383 32.2169C146.377 32.0524 146.367 31.9409 146.16 31.9728C145.491 32.0789 144.976 32.3921 144.658 33.0131C144.376 33.5598 144.382 34.149 144.482 34.7223C144.663 35.7839 145.364 36.442 146.303 36.872C147.349 37.3497 148.474 37.4399 149.923 37.4824C150.337 37.4187 151.064 37.3603 151.781 37.2276ZM141.393 25.2794C141.393 23.6711 141.393 22.0575 141.398 20.4492C141.398 20.2528 141.367 20.1732 141.144 20.1732C139.896 20.1838 138.649 20.1785 137.402 20.1785C137.248 20.1785 137.163 20.2104 137.12 20.3749C137.046 20.6722 136.961 20.9694 136.86 21.2613C136.791 21.4524 136.866 21.479 137.035 21.4843C137.2 21.4843 137.37 21.5108 137.534 21.5427C138.001 21.6488 138.341 21.893 138.41 22.4079C138.447 22.7104 138.495 23.0183 138.495 23.3261C138.5 26.909 138.5 30.4918 138.495 34.0747C138.495 34.3136 138.479 34.5524 138.453 34.786C138.389 35.3539 138.092 35.683 137.529 35.7892C137.359 35.821 137.179 35.8422 137.004 35.8422C136.855 35.8422 136.802 35.89 136.807 36.0386C136.818 36.32 136.823 36.6066 136.807 36.8879C136.797 37.0843 136.855 37.148 137.057 37.1427C137.773 37.1321 138.49 37.1374 139.206 37.1374C140.39 37.1374 141.579 37.1321 142.763 37.1427C143.017 37.148 143.145 37.1002 143.102 36.8136C143.076 36.6384 143.097 36.458 143.097 36.2828C143.097 35.8529 143.097 35.8529 142.672 35.8369C141.998 35.8104 141.574 35.4919 141.462 34.908C141.42 34.6745 141.398 34.4356 141.398 34.1968C141.393 31.9409 141.393 29.685 141.393 27.4292C141.393 26.7126 141.393 25.996 141.393 25.2794ZM141.743 7.62525C141.181 7.91718 140.613 8.20381 140.061 8.51698C139.806 8.66029 139.599 8.66029 139.355 8.50636C138.814 8.17727 138.256 7.86941 137.699 7.55624C137.63 7.51909 137.534 7.50847 137.46 7.5297C137.428 7.54032 137.391 7.65179 137.402 7.71017C137.492 8.24627 137.571 8.78768 137.699 9.31317C137.816 9.79619 137.757 10.1677 137.317 10.4862C136.881 10.7994 136.505 11.1975 136.112 11.5637C136.053 11.6221 136.011 11.723 136.006 11.8026C136.006 11.8344 136.122 11.8981 136.191 11.9088C136.733 11.9884 137.269 12.0839 137.81 12.1264C138.293 12.1635 138.596 12.3546 138.766 12.8323C138.941 13.3313 139.185 13.8037 139.408 14.2814C139.45 14.3663 139.53 14.4353 139.594 14.5149C139.668 14.4353 139.764 14.3716 139.806 14.2814C140.093 13.7135 140.374 13.1455 140.65 12.5776C140.746 12.3759 140.894 12.2644 141.117 12.2378C141.754 12.1688 142.396 12.0998 143.033 12.0255C143.124 12.0149 143.214 11.9565 143.299 11.9194C143.251 11.8291 143.219 11.7283 143.15 11.6593C142.699 11.2081 142.248 10.7622 141.781 10.327C141.611 10.1677 141.568 9.98728 141.605 9.77496C141.643 9.57857 141.696 9.38217 141.733 9.18047C141.834 8.70807 141.929 8.23566 142.02 7.80041C142.03 7.55094 141.961 7.51378 141.743 7.62525ZM124.068 48.0187C123.511 46.9677 122.959 45.9114 122.396 44.8657C121.982 44.0908 122.168 44.25 121.313 44.2182C121.069 44.2075 121.021 44.2978 121.021 44.5207C121.032 46.1131 121.027 47.7055 121.027 49.2979C121.027 49.9401 121.027 49.9295 121.664 49.9348C121.865 49.9348 121.913 49.8711 121.913 49.68C121.902 48.5123 121.908 47.3445 121.908 46.1768C121.908 46.0706 121.908 45.9592 121.908 45.853C122.019 45.9273 122.067 46.0069 122.109 46.0866C122.624 47.042 123.139 47.9974 123.649 48.9528C123.755 49.1545 123.898 49.2448 124.132 49.2448C124.392 49.2501 124.514 49.1121 124.615 48.9104C125.114 47.9656 125.613 47.0261 126.117 46.0866C126.165 46.0016 126.218 45.9167 126.271 45.8318C126.324 45.9114 126.335 45.9698 126.335 46.0282C126.335 47.1269 126.335 48.2204 126.335 49.3191C126.335 49.9348 126.335 49.9242 126.94 49.9348C127.163 49.9401 127.221 49.8764 127.221 49.6535C127.21 48.0877 127.216 46.5218 127.216 44.956C127.216 44.7224 127.279 44.3933 127.157 44.2766C127.03 44.1545 126.706 44.2447 126.473 44.2235C126.26 44.2076 126.128 44.2925 126.032 44.4836C125.719 45.0887 125.395 45.6832 125.077 46.283C124.758 46.8828 124.445 47.4772 124.126 48.0823C124.105 48.0558 124.084 48.0399 124.068 48.0187ZM75.7128 47.0685C75.7128 46.2033 75.7181 45.3381 75.7074 44.4676C75.7074 44.2659 75.7658 44.2129 75.9622 44.2182C76.6416 44.2288 77.3264 44.2076 78.0058 44.2235C79.7043 44.2712 80.7765 45.4761 80.7818 47.0048C80.7871 47.9868 80.4793 48.8042 79.6778 49.3987C79.2107 49.7437 78.6746 49.9136 78.096 49.9189C77.3901 49.9295 76.6841 49.9136 75.9728 49.9242C75.7711 49.9295 75.7021 49.8764 75.7021 49.6588C75.7234 48.8042 75.7128 47.9337 75.7128 47.0685ZM76.7425 47.0951C76.7425 47.6949 76.7478 48.2947 76.7372 48.8945C76.7372 49.0696 76.785 49.1545 76.976 49.1492C77.2786 49.1386 77.5758 49.1599 77.8784 49.1439C78.855 49.0962 79.4495 48.6609 79.6512 47.7533C79.7415 47.3445 79.7309 46.8934 79.6778 46.474C79.5716 45.7097 78.9984 45.1577 78.2393 45.0568C77.82 45.0037 77.3954 45.0462 76.9707 45.0356C76.7956 45.0303 76.7425 45.0887 76.7425 45.2638C76.7478 45.8742 76.7425 46.4847 76.7425 47.0951ZM107.295 47.0632C107.295 46.198 107.3 45.3275 107.29 44.4623C107.29 44.2819 107.337 44.2182 107.523 44.2182C108.224 44.2288 108.919 44.1969 109.62 44.2288C111.111 44.2925 112.157 45.2638 112.311 46.6492C112.444 47.8435 112.109 48.8308 111.074 49.5102C110.655 49.7862 110.177 49.9189 109.673 49.9242C108.956 49.9348 108.24 49.9189 107.523 49.9295C107.337 49.9348 107.284 49.8711 107.284 49.6907C107.3 48.8148 107.295 47.939 107.295 47.0632ZM108.325 47.0844C108.325 47.6949 108.33 48.3053 108.319 48.9104C108.319 49.0749 108.362 49.1545 108.542 49.1492C108.845 49.1386 109.142 49.1599 109.445 49.1439C110.384 49.1015 111.011 48.6503 111.202 47.8276C111.287 47.4507 111.292 47.042 111.271 46.6545C111.223 45.8318 110.612 45.163 109.8 45.0568C109.392 45.0037 108.972 45.0515 108.558 45.0356C108.362 45.0303 108.325 45.1046 108.325 45.2798C108.33 45.8849 108.325 46.4847 108.325 47.0844ZM95.1398 46.1503C96.0315 47.2808 96.9286 48.4061 97.7991 49.5526C98.0167 49.8393 98.2503 49.9507 98.6006 49.9348C98.8129 49.9242 98.8819 49.8817 98.8819 49.6535C98.8713 48.0717 98.8766 46.49 98.8766 44.9082C98.8766 44.2129 98.8766 44.2182 98.1919 44.2182C98.0061 44.2182 97.953 44.2712 97.953 44.457C97.9583 45.5876 97.9583 46.7182 97.9583 47.8541C97.9583 47.9603 97.9583 48.0664 97.9583 48.2203C97.8575 48.1089 97.7885 48.0399 97.7301 47.9656C96.8437 46.835 95.9466 45.7044 95.0708 44.5632C94.885 44.3243 94.6992 44.2076 94.3861 44.2129C94.1366 44.2235 94.057 44.2712 94.057 44.5366C94.0676 46.1184 94.0623 47.7002 94.0623 49.2819C94.0623 49.9401 94.0623 49.9295 94.7205 49.9295C94.9169 49.9295 94.954 49.8552 94.9487 49.68C94.9381 49.2979 94.9434 48.921 94.9434 48.5388C94.9434 47.7002 94.9434 46.8615 94.9434 45.9432C95.0443 46.0547 95.0973 46.0972 95.1398 46.1503ZM116.499 49.9932C114.88 50.0251 113.59 48.8626 113.617 47.0314C113.638 45.3328 114.838 44.1492 116.552 44.1704C118.203 44.1916 119.418 45.3275 119.408 47.111C119.397 48.8785 118.166 50.0251 116.499 49.9932ZM118.367 47.0791C118.341 46.8509 118.33 46.6227 118.277 46.3997C118.113 45.6619 117.534 45.1311 116.823 45.0462C115.968 44.9454 115.257 45.2691 114.917 45.9432C114.684 46.4103 114.62 46.9093 114.689 47.4348C114.774 48.1036 115.029 48.6662 115.676 48.9528C116.34 49.2501 117.003 49.2289 117.608 48.7989C118.197 48.3849 118.346 47.7586 118.367 47.0791ZM59.3325 48.0452C58.4407 46.904 57.5437 45.7681 56.6626 44.6163C56.4502 44.3456 56.2379 44.181 55.8664 44.2129C55.6488 44.2341 55.5904 44.2819 55.5904 44.4995C55.601 46.0972 55.5957 47.7002 55.5957 49.2979C55.5957 49.9348 55.5957 49.9295 56.2379 49.9295C56.4184 49.9295 56.4821 49.8817 56.4821 49.6907C56.4768 48.5388 56.4768 47.3923 56.4768 46.2405C56.4768 46.1609 56.5033 46.0813 56.5192 46.0016C56.5723 46.0547 56.636 46.0972 56.6838 46.1609C57.5755 47.2915 58.4726 48.4221 59.3431 49.5633C59.5448 49.8287 59.7571 49.9507 60.0968 49.9348C60.3516 49.9242 60.3993 49.8446 60.394 49.6163C60.3834 48.024 60.3887 46.4316 60.3887 44.8445C60.3887 44.2182 60.3887 44.2288 59.7677 44.2182C59.5554 44.2129 59.497 44.2766 59.497 44.4836C59.5076 45.5345 59.5023 46.5855 59.5023 47.6418C59.5023 47.8169 59.5023 47.9868 59.5023 48.231C59.4174 48.1354 59.3696 48.093 59.3325 48.0452ZM105.512 47.3286C105.517 47.1481 105.469 47.0791 105.278 47.0844C104.88 47.1004 104.482 47.0898 104.084 47.0898C103.595 47.0898 103.601 47.0898 103.627 47.5834C103.638 47.7639 103.707 47.8647 103.903 47.8541C104.073 47.8488 104.243 47.8382 104.407 47.8594C104.471 47.8647 104.567 47.939 104.577 47.9921C104.731 48.8838 104.588 49.1015 103.702 49.1917C102.932 49.2713 102.109 48.9582 101.732 48.146C101.531 47.7055 101.488 47.2437 101.536 46.7766C101.647 45.6938 102.385 45.0303 103.372 45.0356C103.855 45.0356 104.296 45.1364 104.705 45.3859C105.018 45.577 105.092 45.5505 105.294 45.232C105.517 44.8764 105.517 44.8764 105.198 44.6587C104.593 44.25 103.914 44.1385 103.208 44.1757C102.47 44.2129 101.807 44.4517 101.276 44.9825C100.639 45.6195 100.448 46.4103 100.485 47.2862C100.517 47.9762 100.745 48.576 101.207 49.0855C102.215 50.2055 104.264 50.248 105.379 49.4783C105.448 49.4306 105.496 49.3085 105.496 49.2129C105.512 48.9051 105.501 48.5919 105.501 48.284C105.512 47.9656 105.501 47.6471 105.512 47.3286ZM88.8764 44.2235C88.6057 44.2076 88.4093 44.3137 88.2448 44.5313C87.7777 45.1417 87.2947 45.7415 86.8223 46.3466C86.6843 46.5218 86.525 46.6386 86.2968 46.6545C86.111 46.6704 86.0261 46.6227 86.0261 46.4103C86.0367 45.7893 86.0155 45.1736 86.0367 44.5526C86.0473 44.2872 85.9783 44.1863 85.7023 44.2182C85.4794 44.25 85.1821 44.1651 85.0441 44.2819C84.9326 44.3827 84.9963 44.6959 84.9963 44.9135C84.9963 46.4953 85.0016 48.077 84.991 49.6641C84.991 49.8764 85.0547 49.9454 85.2617 49.9295C85.4263 49.9136 85.5961 49.9136 85.766 49.9295C85.973 49.9507 86.0367 49.8817 86.0314 49.6641C86.0155 48.99 86.0367 48.3212 86.0208 47.6471C86.0155 47.4242 86.1004 47.3764 86.2968 47.3817C86.5675 47.3976 86.7745 47.4932 86.9444 47.7214C87.4327 48.3796 87.9369 49.0325 88.4412 49.68C88.5155 49.7756 88.6376 49.8977 88.7437 49.9083C89.0728 49.9401 89.4072 49.9189 89.7841 49.9189C89.4285 49.4412 89.1153 48.9953 88.7809 48.5654C88.3616 48.024 87.921 47.4985 87.4911 46.9624C87.4698 46.9358 87.4805 46.8562 87.5017 46.8244C87.8042 46.4634 88.1121 46.1184 88.4093 45.7575C88.8127 45.2691 89.2055 44.7702 89.6461 44.2235C89.3488 44.2235 89.1153 44.2341 88.8764 44.2235ZM49.0085 46.2405C49.0085 46.8137 48.9926 47.3923 49.0138 47.9656C49.0297 48.4857 49.2368 48.9422 49.5977 49.3191C50.1444 49.887 50.8291 50.0251 51.5829 49.9826C52.7665 49.9136 53.6317 49.1015 53.6901 47.8806C53.7485 46.7235 53.7007 45.5664 53.706 44.4039C53.706 44.2659 53.6636 44.2129 53.5256 44.2182C53.3398 44.2288 53.154 44.2341 52.9682 44.2182C52.74 44.1969 52.6657 44.2659 52.671 44.5048C52.6869 45.6088 52.6816 46.7182 52.6763 47.8223C52.671 48.4804 52.1933 49.0325 51.5935 49.1015C50.8238 49.1917 50.2453 48.8361 50.0701 48.146C50.0223 47.9496 50.0011 47.7479 49.9958 47.5462C49.9905 46.681 49.9958 45.8105 49.9905 44.9454C49.9905 44.7118 50.0542 44.3827 49.9268 44.2659C49.7941 44.1439 49.4756 44.2341 49.2368 44.2182C49.051 44.2022 48.9926 44.2766 48.9979 44.457C49.0085 45.0515 49.0032 45.6407 49.0032 46.2352C49.0032 46.2405 49.0085 46.2405 49.0085 46.2405ZM70.5587 49.6323C70.5534 49.8552 70.6012 49.9348 70.8454 49.9295C71.7796 49.9136 72.7191 49.9242 73.6586 49.9242C74.1416 49.9242 74.131 49.9242 74.1469 49.4359C74.1575 49.1917 74.0726 49.1386 73.8497 49.1439C73.1862 49.1545 72.5227 49.1439 71.8592 49.1492C71.6522 49.1545 71.5779 49.0855 71.5885 48.8732C71.6044 48.4857 71.6044 48.093 71.5885 47.7055C71.5779 47.4825 71.6681 47.4295 71.8645 47.4348C72.2732 47.4454 72.6766 47.4348 73.0853 47.4348C73.6161 47.4348 73.6055 47.4348 73.6161 46.8987C73.6214 46.6917 73.5471 46.6492 73.356 46.6545C72.8412 46.6651 72.3316 46.6545 71.8167 46.6598C71.6469 46.6651 71.5832 46.612 71.5885 46.4369C71.5991 46.0494 71.6044 45.6566 71.5885 45.2691C71.5779 45.0568 71.6628 45.0197 71.8486 45.025C72.4218 45.0356 72.9951 45.0303 73.5737 45.0303C74.1522 45.0303 74.1469 45.0303 74.1469 44.4411C74.1469 44.2712 74.1044 44.2129 73.9293 44.2129C72.8889 44.2182 71.8433 44.2235 70.8029 44.2129C70.6118 44.2129 70.5694 44.2766 70.5694 44.457C70.58 45.3222 70.5747 46.1874 70.5747 47.0579C70.5641 47.9178 70.5747 48.7777 70.5587 49.6323ZM67.4642 45.4284C67.4642 45.0515 67.4642 45.0515 67.8517 45.0515C68.1065 45.0515 68.3666 45.0515 68.6213 45.0515C69.2158 45.0515 69.2052 45.0515 69.2105 44.4676C69.2105 44.2659 69.1521 44.2129 68.9557 44.2182C67.7455 44.2288 66.53 44.2235 65.3198 44.2235C64.6988 44.2235 64.7094 44.2235 64.7147 44.8392C64.72 45.025 64.7943 45.0568 64.9536 45.0568C65.341 45.0515 65.7338 45.0674 66.1213 45.0515C66.392 45.0356 66.4663 45.1364 66.4663 45.4018C66.4557 46.6651 66.461 47.9337 66.461 49.197C66.461 49.9454 66.461 49.9348 67.2094 49.9348C67.4111 49.9348 67.4695 49.8764 67.4642 49.68C67.4536 48.9635 67.4589 48.2469 67.4589 47.5303C67.4642 46.8297 67.4642 46.129 67.4642 45.4284ZM63.3718 44.5473C63.3771 44.2712 63.2922 44.1916 63.0321 44.2182C62.8145 44.2447 62.5013 44.1545 62.4004 44.2659C62.2837 44.3986 62.3368 44.6959 62.3368 44.9241C62.3314 46.4953 62.3421 48.0717 62.3314 49.6429C62.3314 49.887 62.4004 49.956 62.6287 49.9295C62.7932 49.9136 62.9631 49.9136 63.1329 49.9295C63.3187 49.9454 63.3718 49.8764 63.3718 49.6907C63.3612 48.8148 63.3665 47.939 63.3665 47.0685C63.3665 46.2299 63.3506 45.3859 63.3718 44.5473ZM92.093 44.9294C92.093 44.2235 92.093 44.2341 91.3924 44.2182C91.1429 44.2129 91.0845 44.2925 91.0845 44.5313C91.0952 46.0866 91.0899 47.6418 91.0899 49.197C91.0899 49.9401 91.0898 49.9348 91.8436 49.9348C92.0453 49.9348 92.0984 49.8711 92.0984 49.6747C92.0877 48.8201 92.093 47.9603 92.093 47.1057C92.093 46.3785 92.093 45.6566 92.093 44.9294ZM104.471 27.5619C104.041 27.5619 103.898 27.7211 103.898 28.1935C103.898 28.6924 104.031 28.8517 104.466 28.8517C105.331 28.8517 106.196 28.8517 107.067 28.8517C107.789 28.8517 107.858 28.788 107.847 28.0714C107.842 27.7052 107.698 27.5619 107.332 27.5566C106.854 27.5566 106.377 27.5566 105.899 27.5566C105.427 27.5619 104.949 27.5565 104.471 27.5619ZM74.9431 27.5619C74.6246 27.5672 74.4548 27.7317 74.4442 28.0502C74.4389 28.1298 74.4442 28.2094 74.4442 28.289C74.4495 28.6924 74.6034 28.8517 75.0068 28.8517C75.8826 28.8517 76.7584 28.8411 77.6342 28.857C78.3455 28.8676 78.4251 28.719 78.3986 28.0873C78.3826 27.7105 78.2553 27.5672 77.8678 27.5619C77.3901 27.5619 76.9123 27.5619 76.4346 27.5619C75.9304 27.5619 75.4367 27.5565 74.9431 27.5619ZM177.848 35.5344C178.225 35.7308 178.182 36.1289 178.289 36.4527C178.294 36.4739 178.236 36.5482 178.22 36.5429C178.092 36.5217 177.933 36.5217 177.843 36.442C177.763 36.373 177.758 36.2191 177.726 36.097C177.641 35.7732 177.477 35.6512 177.153 35.7042C177.094 35.7149 177.015 35.7998 177.009 35.8635C176.988 36.0386 176.994 36.2191 177.004 36.3943C177.015 36.5641 176.903 36.5535 176.797 36.5482C176.691 36.5429 176.558 36.596 176.558 36.3996C176.564 35.8051 176.558 35.2159 176.564 34.6214C176.564 34.5683 176.643 34.4728 176.686 34.4675C177.02 34.4516 177.349 34.4409 177.684 34.4569C177.938 34.4675 178.151 34.5736 178.22 34.8443C178.289 35.1363 178.177 35.3433 177.901 35.4654C177.891 35.476 177.88 35.5025 177.848 35.5344ZM177.307 34.7435C177.009 34.7435 177.009 34.7435 177.009 35.0832C177.009 35.2477 176.967 35.4282 177.243 35.4123C177.556 35.3964 177.779 35.2743 177.784 35.0673C177.784 34.8603 177.62 34.7435 177.307 34.7435Z" fill="white"/>
</svg>
