<svg width="160" height="67" viewBox="0 0 160 67" fill="none" xmlns="http://www.w3.org/2000/svg">
<path d="M45.776 65.4209C45.9614 65.4209 46.1467 65.4209 46.2703 65.3591C46.3938 65.2973 46.5174 65.2356 46.6409 65.112C46.7645 64.9885 46.8262 64.8649 46.888 64.6796C46.9498 64.4943 46.9498 64.3707 46.9498 64.1236V61.0348H47.8764V64.1236C47.8764 64.4325 47.8147 64.7414 47.7529 64.9885C47.6293 65.2356 47.5058 65.4827 47.3204 65.668C47.1351 65.8533 46.888 65.9769 46.6409 66.1004C46.3938 66.224 46.0849 66.2858 45.776 66.2858C45.4672 66.2858 45.1583 66.224 44.9112 66.1004C44.6641 65.9769 44.417 65.8533 44.2316 65.668C44.0463 65.4827 43.9228 65.2356 43.7992 64.9885C43.6757 64.7414 43.6757 64.4325 43.6757 64.1236V61.0348H44.6023V64.1236C44.6023 64.3089 44.6023 64.4943 44.6641 64.6796C44.7259 64.8649 44.7876 64.9885 44.9112 65.112C45.0347 65.2356 45.1583 65.2973 45.2818 65.3591C45.4054 65.3591 45.5907 65.4209 45.776 65.4209Z" fill="white"/>
<path d="M50.1622 61.0348H50.224C50.224 61.0348 50.2857 61.0348 50.2857 61.0966L50.3475 61.1583L53.0657 64.6178C53.0657 64.556 53.0657 64.4325 53.0657 64.3707C53.0657 64.3089 53.0657 64.1854 53.0657 64.1236V61.0348H53.9305V66.1622H53.4363C53.3745 66.1622 53.3128 66.1622 53.251 66.1004C53.1892 66.1004 53.1274 66.0387 53.1274 65.9769L50.4711 62.5792C50.4711 62.641 50.4711 62.7027 50.4711 62.8263C50.4711 62.8881 50.4711 62.9498 50.4711 63.0116V66.1622H49.6062V61.0348H50.0386C50.1004 61.0348 50.1004 61.0348 50.1622 61.0348Z" fill="white"/>
<path d="M56.525 61.0348H55.5366V66.1622H56.525V61.0348Z" fill="white"/>
<path d="M61.7143 61.0348V61.8379H60.1699V66.1622H59.2433V61.8379H57.6989V61.0348H61.7143Z" fill="white"/>
<path d="M66.1004 61.0348V61.7761H63.8147V63.197H65.6062V63.9383H63.8147V65.4209H66.1004V66.1622H62.8881V61.0348H66.1004Z" fill="white"/>
<path d="M72.0309 63.6294C72.0309 64 71.9691 64.3707 71.8456 64.6796C71.722 64.9885 71.5367 65.2356 71.2896 65.4827C71.0425 65.7298 70.7954 65.9151 70.4865 66.0386C70.1776 66.1622 69.807 66.224 69.4363 66.224H67.4595V61.0966H69.4363C69.807 61.0966 70.1776 61.1583 70.4865 61.2819C70.7954 61.4054 71.1043 61.5908 71.2896 61.8379C71.5367 62.085 71.722 62.3321 71.8456 62.641C71.9691 62.8881 72.0309 63.2587 72.0309 63.6294ZM71.0425 63.6294C71.0425 63.3205 70.9807 63.0734 70.9189 62.8881C70.8572 62.641 70.7336 62.4556 70.6101 62.3321C70.4865 62.1468 70.3012 62.085 70.1158 61.9614C69.9305 61.8996 69.6834 61.8379 69.4363 61.8379H68.4479V65.4209H69.4363C69.6834 65.4209 69.9305 65.3591 70.1158 65.2973C70.3012 65.2356 70.4865 65.112 70.6101 64.9267C70.7336 64.8031 70.8572 64.556 70.9189 64.3707C71.0425 64.1236 71.0425 63.8765 71.0425 63.6294Z" fill="white"/>
<path d="M76.6641 63.197H76.9112C76.9729 63.197 77.0965 63.197 77.1583 63.1352C77.2201 63.1352 77.2818 63.0734 77.2818 63.0116L78.7027 61.2201C78.7645 61.1584 78.8262 61.0966 78.888 61.0348C78.9498 61.0348 79.0116 60.973 79.1351 60.973H79.9382L78.2085 63.0734C78.0849 63.197 78.0231 63.3205 77.8996 63.3205C77.9614 63.3205 78.0231 63.3823 78.0849 63.4441C78.1467 63.5059 78.2085 63.5676 78.2702 63.6294L80.0618 66.0387H79.1969C79.0733 66.0387 79.0116 66.0387 78.9498 65.9769C78.888 65.9151 78.8262 65.9151 78.8262 65.8533L77.4054 63.9383C77.3436 63.8765 77.2818 63.8147 77.2201 63.8147C77.1583 63.8147 77.0965 63.753 76.9729 63.753H76.6641V66.0387H75.7374V60.9113H76.6641V63.197Z" fill="white"/>
<path d="M82.1621 61.0348H81.1737V66.1622H82.1621V61.0348Z" fill="white"/>
<path d="M84.3861 61.0348H84.4478C84.4478 61.0348 84.5096 61.0348 84.5096 61.0966L84.5714 61.1583L87.2895 64.6178C87.2895 64.556 87.2895 64.4325 87.2895 64.3707C87.2895 64.3089 87.2895 64.1854 87.2895 64.1236V61.0348H88.1544V66.1622H87.6602C87.5984 66.1622 87.5366 66.1622 87.4749 66.1004C87.4131 66.1004 87.3513 66.0387 87.3513 65.9769L84.6949 62.5792C84.6949 62.641 84.6949 62.7027 84.6949 62.8263C84.6949 62.8881 84.6949 62.9498 84.6949 63.0116V66.1622H83.8301V61.0348H84.3243C84.3243 61.0348 84.3861 61.0348 84.3861 61.0348Z" fill="white"/>
<path d="M93.2201 66.1004C92.9112 66.1622 92.6023 66.224 92.2935 66.224C91.861 66.224 91.4904 66.1622 91.1815 66.0387C90.8726 65.9151 90.5637 65.7298 90.3166 65.4827C90.0695 65.2356 89.8842 64.9885 89.7606 64.6796C89.6371 64.3707 89.5753 64 89.5753 63.6294C89.5753 63.2587 89.6371 62.8881 89.7606 62.5792C89.8842 62.2703 90.0695 61.9614 90.3166 61.7761C90.5637 61.529 90.8108 61.3437 91.1815 61.2201C91.5522 61.0966 91.861 61.0348 92.2935 61.0348C92.4788 61.0348 92.7259 61.0348 92.8495 61.0966C92.973 61.1583 93.2201 61.1583 93.3437 61.2201C93.529 61.2819 93.6525 61.3437 93.7761 61.4054C93.8996 61.4672 94.0232 61.5908 94.1467 61.6526L93.8996 62.085C93.8379 62.1468 93.7761 62.2085 93.7143 62.2085C93.6525 62.2085 93.5908 62.2085 93.4672 62.1468C93.4054 62.085 93.2819 62.085 93.2201 62.0232C93.1583 61.9614 93.0348 61.9614 92.973 61.8997C92.8494 61.8379 92.7877 61.8379 92.6641 61.8379C92.5406 61.8379 92.417 61.7761 92.2317 61.7761C91.9846 61.7761 91.7375 61.8379 91.5521 61.8997C91.3668 61.9614 91.1815 62.085 91.0579 62.2703C90.9344 62.4556 90.8108 62.641 90.7491 62.8263C90.6873 63.0734 90.6255 63.3205 90.6255 63.5676C90.6255 63.8765 90.6873 64.1236 90.7491 64.3707C90.8108 64.6178 90.9344 64.8031 91.1197 64.9267C91.2433 65.112 91.4286 65.2356 91.6757 65.2973C91.861 65.3591 92.1081 65.4209 92.417 65.4209C92.6023 65.4209 92.7877 65.4209 92.9112 65.3591C93.0348 65.2973 93.2201 65.2356 93.3437 65.1738V64.2471H92.7259C92.6641 64.2471 92.6023 64.2471 92.6023 64.1854C92.5406 64.1236 92.5406 64.1236 92.5406 64.0618V63.5676H94.2703V65.668C93.7761 65.8533 93.529 65.9769 93.2201 66.1004Z" fill="white"/>
<path d="M100.139 63.6294C100.139 64 100.077 64.3707 99.9537 64.6796C99.8302 64.9885 99.6448 65.2356 99.3977 65.4827C99.1506 65.7298 98.9035 65.9151 98.5947 66.0386C98.2858 66.1622 97.9151 66.224 97.5445 66.224H95.5676V61.0966H97.5445C97.9151 61.0966 98.2858 61.1583 98.5947 61.2819C98.9035 61.4054 99.2124 61.5908 99.3977 61.8379C99.6448 62.085 99.8302 62.3321 99.9537 62.641C100.077 62.8881 100.139 63.2587 100.139 63.6294ZM99.1506 63.6294C99.1506 63.3205 99.0889 63.0734 99.0271 62.8881C98.9653 62.641 98.8418 62.4556 98.7182 62.3321C98.5947 62.1468 98.4093 62.085 98.224 61.9614C98.0387 61.8996 97.7916 61.8379 97.5445 61.8379H96.556V65.4209H97.5445C97.7916 65.4209 98.0387 65.3591 98.224 65.2973C98.4093 65.2356 98.5947 65.112 98.7182 64.9267C98.8418 64.8031 98.9653 64.556 99.0271 64.3707C99.1506 64.1236 99.1506 63.8765 99.1506 63.6294Z" fill="white"/>
<path d="M106.44 63.6294C106.44 64 106.378 64.3707 106.255 64.6796C106.131 64.9885 105.946 65.2973 105.699 65.4827C105.452 65.7298 105.205 65.9151 104.896 66.0387C104.587 66.1622 104.216 66.224 103.846 66.224C103.475 66.224 103.104 66.1622 102.795 66.0387C102.486 65.9151 102.178 65.7298 101.992 65.4827C101.745 65.2356 101.56 64.9885 101.436 64.6796C101.313 64.3707 101.251 64 101.251 63.6294C101.251 63.2587 101.313 62.8881 101.436 62.5792C101.56 62.2703 101.745 61.9614 101.992 61.7761C102.239 61.529 102.486 61.3437 102.795 61.2201C103.104 61.0966 103.475 61.0348 103.846 61.0348C104.093 61.0348 104.34 61.0966 104.587 61.0966C104.834 61.1583 105.019 61.2201 105.205 61.3437C105.39 61.4672 105.575 61.5908 105.699 61.7143C105.822 61.8997 106.008 62.0232 106.07 62.2703C106.131 62.5174 106.255 62.7027 106.317 62.8881C106.44 63.1352 106.44 63.3823 106.44 63.6294ZM105.452 63.6294C105.452 63.3205 105.39 63.0734 105.328 62.8881C105.266 62.641 105.143 62.4556 105.019 62.3321C104.896 62.2085 104.71 62.085 104.525 61.9614C104.34 61.8997 104.093 61.8379 103.846 61.8379C103.598 61.8379 103.351 61.8997 103.166 61.9614C102.981 62.0232 102.795 62.1468 102.672 62.3321C102.548 62.5174 102.425 62.7027 102.363 62.8881C102.301 63.1352 102.239 63.3823 102.239 63.6294C102.239 63.9383 102.301 64.1854 102.363 64.3707C102.425 64.6178 102.548 64.8031 102.672 64.9267C102.795 65.112 102.981 65.1738 103.166 65.2973C103.351 65.3591 103.598 65.4209 103.846 65.4209C104.093 65.4209 104.34 65.3591 104.525 65.2973C104.71 65.2356 104.896 65.112 105.019 64.9267C105.143 64.8031 105.266 64.556 105.328 64.3707C105.452 64.1236 105.452 63.8765 105.452 63.6294Z" fill="white"/>
<path d="M110.517 64.2471C110.579 64.3089 110.579 64.4325 110.641 64.4942C110.703 64.4325 110.703 64.3089 110.765 64.2471C110.826 64.1854 110.826 64.0618 110.888 64L112.433 61.1583C112.433 61.0966 112.494 61.0966 112.494 61.0966L112.556 61.0348H112.618C112.618 61.0348 112.68 61.0348 112.741 61.0348H113.483V66.1622H112.618V62.8263C112.618 62.7645 112.618 62.7027 112.618 62.641C112.618 62.5792 112.618 62.5174 112.618 62.3939L111.073 65.2973C111.012 65.4209 110.888 65.4827 110.765 65.4827H110.579C110.456 65.4827 110.332 65.4209 110.27 65.2973L108.726 62.3939C108.726 62.4556 108.726 62.5174 108.726 62.641C108.726 62.7027 108.726 62.7645 108.726 62.8263V66.1622H107.861V61.0348H108.602C108.664 61.0348 108.664 61.0348 108.726 61.0348H108.788C108.788 61.0348 108.849 61.0348 108.849 61.0966L108.911 61.1583L110.456 64C110.456 64.1236 110.517 64.1854 110.517 64.2471Z" fill="white"/>
<path d="M69.8687 46.5792V47.0117C69.8687 47.197 69.6834 47.3823 69.4981 47.3823H66.7181C66.5328 47.3823 66.3475 47.197 66.3475 47.0117V46.5792C66.3475 46.3939 66.5328 46.2086 66.7181 46.2086H69.4981C69.7452 46.2086 69.8687 46.3939 69.8687 46.5792ZM63.1969 43.1815C63.444 44.0464 63.6293 44.973 63.6293 46.085V47.3823H54.1776C54.1776 48.4325 54.3012 49.2974 54.4865 50.0387C54.6718 50.78 54.9189 51.3978 55.2896 51.892C55.6602 52.3862 56.0927 52.6951 56.5869 52.9422C57.0811 53.1893 57.6988 53.251 58.3784 53.251C58.8726 53.251 59.305 53.1893 59.7374 53.0657C60.1699 52.9422 60.5405 52.8186 60.8494 52.6333C61.2201 52.448 61.4672 52.2626 61.7761 52.0155C62.0232 51.7684 62.2703 51.5213 62.3938 51.2742C62.5174 51.336 62.6409 51.4595 62.7645 51.6449C62.888 51.8302 62.9498 52.0155 62.9498 52.2626C62.9498 52.5715 62.8263 52.8804 62.6409 53.1893C62.4556 53.4981 62.1467 53.807 61.7143 54.1159C61.2819 54.363 60.7876 54.6101 60.1699 54.7954C59.5521 54.9808 58.8108 55.0425 58.0077 55.0425C56.9575 55.0425 56.0927 54.8572 55.2278 54.5483C54.4247 54.1777 53.7452 53.6835 53.1892 53.0657C52.6332 52.3862 52.2008 51.5831 51.8919 50.6564C51.583 49.668 51.4595 48.6178 51.4595 47.3823C51.4595 44.7259 52.0154 42.7491 53.0656 41.4518C54.1776 40.0927 55.722 39.475 57.6988 39.475C58.6255 39.475 59.4286 39.5985 60.1699 39.9074C60.9112 40.2163 61.529 40.5869 62.0232 41.2047C62.5174 41.6371 62.888 42.3167 63.1969 43.1815ZM60.7259 45.8997C60.7259 45.1584 60.6641 44.4788 60.5405 43.8611C60.417 43.2433 60.2317 42.6873 60.0463 42.2549C59.7992 41.8225 59.4903 41.4518 59.1197 41.2047C58.749 40.9576 58.2548 40.834 57.6988 40.834C56.6486 40.834 55.8456 41.2665 55.2896 42.1314C54.7336 42.9962 54.3629 44.2317 54.3012 45.8379H60.7259V45.8997ZM11.1197 50.78L5.25097 34.5947H0V35.7684C1.2973 35.7684 1.48263 36.2008 1.48263 37.1893V52.0773C1.48263 53.0657 1.2973 53.4981 0 53.4981V54.6719H4.75676V53.4981C3.45946 53.4981 3.27413 53.0657 3.27413 52.0773V36.7568L9.82239 54.7337H11.3668L17.8533 36.6951V52.1391C17.8533 53.1275 17.668 53.5599 16.3707 53.5599V54.7337H22.1158V53.5599C20.8185 53.5599 20.6332 53.1275 20.6332 52.1391V37.251C20.6332 36.2626 20.8185 35.8302 22.1158 35.8302V34.6564H17.0502L11.1197 50.78ZM50.1622 53.0039C49.6679 52.6333 49.1737 52.0155 48.6795 51.2742L44.9112 45.7144L46.888 43.4904C47.6293 42.6256 48.3089 42.0078 48.9266 41.5754C49.5444 41.1429 50.2239 40.8958 50.8417 40.8958V39.7221H45.2201V40.8958C46.5174 40.8958 46.8263 41.2665 46.0232 42.1931C45.2201 43.058 44.5405 43.7993 44.417 43.9846L41.2046 47.4441V33.2974H37.0656V34.4711C38.3629 34.4711 38.5483 34.9036 38.5483 35.892V52.1391C38.5483 53.1275 38.3629 53.5599 37.0656 53.5599V54.7337H42.749V53.5599C41.4517 53.5599 41.2664 53.1275 41.2664 52.1391V49.668L43.1197 47.6294L45.8378 51.7684C46.2085 52.3862 46.5792 52.8804 46.888 53.251C47.8764 54.4248 48.3089 55.1043 49.9151 55.1043C51.6448 55.1043 51.8919 53.6217 51.8919 53.6217H51.8301C51.2124 53.5599 50.6564 53.3746 50.1622 53.0039ZM36.2625 53.5599V53.6217C36.2625 53.9306 36.0772 55.0425 34.3475 55.0425C32.4942 55.0425 32.0618 52.7568 32 52.3862V52.3244C31.6911 52.6951 31.0734 55.0425 27.3668 55.0425C26.749 55.0425 26.1313 54.9808 25.6371 54.7954C25.0811 54.6101 24.6486 54.363 24.2162 53.9924C23.8456 53.6217 23.5367 53.1275 23.2896 52.5715C23.0425 52.0155 22.9807 51.336 22.9807 50.5947C22.9807 49.112 23.5367 48.0001 24.5869 47.2588C26.749 45.7761 29.7761 45.9615 31.7529 45.9615V44.2935C31.7529 43.7993 31.7529 43.3051 31.6911 42.8727C31.6293 42.4402 31.5058 42.0696 31.3205 41.7607C31.1351 41.4518 30.888 41.2047 30.5174 41.0194C30.1467 40.8341 29.7143 40.7723 29.1583 40.7723C28.6023 40.7723 28.1699 40.8341 27.861 41.0194C27.5521 41.2047 27.2432 41.39 27.0579 41.6371C26.8726 41.8842 26.749 42.2549 26.6873 42.6256C26.6255 42.9962 26.5637 43.4286 26.5637 43.8611C25.7606 43.8611 25.2046 43.7375 24.7722 43.4904C24.3398 43.2433 24.1544 42.7491 24.1544 42.1314C24.1544 41.6371 24.278 41.2047 24.5251 40.8958C24.7722 40.5252 25.1429 40.2781 25.6371 40.031C26.1313 39.8456 26.6255 39.6603 27.2432 39.5368C27.861 39.4132 28.5405 39.4132 29.2201 39.4132C30.0849 39.4132 30.8263 39.475 31.5058 39.6603C32.1236 39.8456 32.6795 40.0927 33.112 40.5252C33.5444 40.8958 33.8533 41.39 34.1004 42.0078C34.2857 42.6256 34.4093 43.3669 34.4093 44.2935V51.6449C34.4093 52.0155 34.4093 52.3244 34.471 52.5715C34.7799 54.1159 36.2625 53.5599 36.2625 53.5599ZM31.7529 47.1352C30.3938 47.1352 27.9228 46.9499 26.6255 48.1236C26.3166 48.4325 26.0695 48.7414 25.9459 49.1738C25.8224 49.6063 25.7606 50.1005 25.7606 50.6564C25.7606 51.5213 25.9459 52.2008 26.3166 52.6333C26.6873 53.0657 27.2432 53.3128 28.0463 53.3128C28.6023 53.3128 29.1583 53.251 29.5907 53.0657C30.0849 52.8804 30.4556 52.6333 30.7645 52.2626C31.0734 51.892 31.3205 51.5213 31.5058 51.0271C31.6911 50.5329 31.7529 49.9769 31.7529 49.4209V47.1352ZM153.452 51.9537V44.8495C153.452 41.3283 151.969 39.3514 148.51 39.3514C146.656 39.3514 145.112 40.0927 144.247 41.7607V33.2974H140.108V34.4711C141.405 34.4711 141.591 34.9036 141.591 35.892C141.591 40.5869 141.591 50.1622 141.591 52.0773C141.591 53.0657 141.405 53.4981 140.108 53.4981V54.6719H145.792V53.4981C144.494 53.4981 144.309 53.0657 144.309 52.0773V46.0232C144.309 43.4904 145.359 41.1429 147.707 41.1429C150.054 41.1429 150.795 42.6256 150.795 44.973V52.5715C150.795 53.5599 151.413 55.1043 153.514 55.1043C155.058 55.1043 155.305 53.9306 155.305 53.9306C155.305 53.9306 153.452 54.2395 153.452 51.9537ZM158.826 53.7452C158.888 54.0541 158.95 54.1159 158.95 54.1777H158.517C158.456 54.1159 158.456 53.9306 158.394 53.7452C158.332 53.5599 158.27 53.4364 158.023 53.4364H157.838V54.1777H157.405V52.3244C157.591 52.3244 157.838 52.2626 158.147 52.2626C158.517 52.2626 158.641 52.3244 158.764 52.3862C158.888 52.448 158.95 52.6333 158.95 52.7568C158.95 53.0039 158.764 53.1275 158.579 53.1893C158.703 53.3746 158.764 53.4981 158.826 53.7452ZM158.394 52.8804C158.394 52.6951 158.27 52.5715 158.023 52.5715C157.9 52.5715 157.838 52.5715 157.776 52.5715V53.1275H157.961C158.208 53.1893 158.394 53.0657 158.394 52.8804ZM91.861 53.8688H92.2317V55.0425H84.4479V53.8688H85.0656C86.5483 53.8688 86.9807 53.0657 86.6718 52.0155C86.61 51.8302 86.5483 51.6449 86.4865 51.4595L85.6834 49.1738C84.4479 49.6063 83.027 49.8534 81.4826 49.8534C80.0618 49.8534 78.7645 49.6063 77.5907 49.2356L76.8494 51.2742C76.7876 51.5213 76.7259 51.7066 76.6641 51.9537C76.4788 52.8804 76.7259 53.3128 77.0347 53.5599C77.3436 53.807 77.8378 53.8688 78.4556 53.8688H79.1351V55.0425H72.2162V53.8688H72.7722C73.0193 53.8688 73.2664 53.8688 73.4517 53.807C73.8842 53.6835 74.193 53.251 74.4402 52.8186C74.5637 52.5097 74.749 52.1391 74.9344 51.7066L76.1081 48.6178C72.1544 46.5175 69.9923 42.2549 69.9923 37.807C69.9923 25.6371 83.5212 21.6835 95.0733 21.6835C105.205 21.6835 115.151 25.4518 120.649 29.5908C120.71 29.6526 120.71 29.6526 120.649 29.7144C120.649 29.7761 120.587 29.7761 120.525 29.7761C116.51 27.6757 107.799 23.5985 95.6911 23.5985C85.1274 23.5985 71.8456 26.9344 71.8456 38.1159C71.8456 41.8842 73.6988 45.2202 76.6023 47.0734L81.112 34.9035H83.3359L87.722 46.9499C89.5135 45.8379 90.8108 44.17 91.6139 42.1931C91.6139 42.1313 91.6757 42.1314 91.7374 42.1314C91.7992 42.1314 91.7992 42.1931 91.7992 42.2549C91.4903 44.4788 90.1313 46.5174 88.0927 47.9383L89.6988 52.3862C89.8224 52.6951 89.9459 52.9422 90.0077 53.1275C90.6255 53.7452 91.1815 53.8688 91.861 53.8688ZM85.4363 48.1236L81.8533 37.9306L78.2703 47.8147C79.444 48.309 80.8031 48.5561 82.1622 48.5561C83.3359 48.5561 84.4479 48.3707 85.4363 48.1236ZM160 53.251C160 54.3012 159.135 55.1043 158.085 55.1043C157.035 55.1043 156.17 54.3012 156.17 53.251C156.17 52.2008 157.035 51.3978 158.085 51.3978C159.135 51.3978 160 52.2008 160 53.251ZM159.629 53.251C159.629 52.3862 158.95 51.7066 158.085 51.7066C157.22 51.7066 156.479 52.3862 156.479 53.251C156.479 54.1159 157.158 54.7954 158.085 54.7954C158.95 54.7954 159.629 54.1159 159.629 53.251ZM126.332 30.7646C126.27 30.7028 126.208 30.5792 126.208 30.4557L126.579 28.5406C126.579 28.4171 126.456 28.2935 126.332 28.3553L124.602 29.2819C124.479 29.3437 124.355 29.3437 124.293 29.2819L122.625 28.2935C122.502 28.2317 122.378 28.3553 122.378 28.4788L122.687 30.3939C122.687 30.5174 122.687 30.641 122.564 30.7028L121.143 32.0001C121.019 32.0619 121.081 32.2472 121.205 32.2472L123.12 32.4943C123.243 32.4943 123.367 32.6178 123.367 32.6796L124.17 34.4711C124.232 34.5947 124.355 34.5947 124.417 34.4711L125.282 32.7414C125.344 32.6178 125.467 32.5561 125.529 32.5561L127.444 32.3707C127.568 32.3707 127.629 32.1854 127.506 32.1236L126.332 30.7646ZM137.884 47.8147C137.514 47.4441 137.081 47.1352 136.587 46.8263C136.031 46.5175 135.413 46.2086 134.672 45.8997C134.054 45.6526 133.498 45.4055 133.066 45.2202C132.633 45.0348 132.263 44.7877 131.954 44.6024C131.645 44.3553 131.459 44.17 131.336 43.8611C131.212 43.614 131.151 43.3051 131.151 42.9344C131.151 42.6256 131.212 42.3167 131.274 42.0078C131.336 41.6989 131.521 41.5136 131.768 41.2665C132.015 41.0812 132.263 40.8958 132.633 40.7723C132.942 40.6487 133.375 40.5869 133.869 40.5869C134.734 40.5869 135.29 40.8341 135.722 41.39C136.093 41.8842 136.278 42.6256 136.278 43.614C136.958 43.614 137.452 43.4904 137.761 43.1815C138.131 42.8727 138.317 42.4402 138.317 41.946C138.317 41.5754 138.255 41.2665 138.069 40.9576C137.884 40.6487 137.637 40.3398 137.266 40.1545C136.896 39.9074 136.463 39.7221 135.969 39.5985C135.475 39.475 134.857 39.4132 134.178 39.4132C133.375 39.4132 132.633 39.475 132.015 39.6603C131.336 39.8456 130.78 40.0927 130.347 40.4016C129.853 40.7105 129.544 41.1429 129.236 41.6371C128.988 42.1313 128.865 42.6873 128.865 43.3669C128.865 43.9846 128.927 44.5406 129.112 44.973C129.297 45.4055 129.544 45.8379 129.915 46.1468C130.286 46.5175 130.718 46.8263 131.274 47.1352C131.83 47.4441 132.448 47.753 133.189 48.0619C133.869 48.3707 134.425 48.6178 134.857 48.8649C135.29 49.112 135.66 49.2974 135.907 49.5445C136.154 49.7916 136.34 49.9769 136.463 50.224C136.587 50.4711 136.649 50.78 136.649 51.1507C136.649 51.5213 136.587 51.892 136.463 52.2008C136.34 52.5097 136.154 52.8186 135.846 53.0039C135.598 53.251 135.29 53.3746 134.857 53.4981C134.486 53.6217 134.054 53.6835 133.498 53.6835C132.942 53.6835 132.448 53.5599 132.077 53.3746C131.707 53.1893 131.398 52.9422 131.151 52.6333C130.903 52.3244 130.718 51.9537 130.656 51.5213C130.533 51.0889 130.533 50.6564 130.533 50.1005C130.347 50.1005 130.162 50.1005 129.977 50.1622C129.792 50.224 129.606 50.3476 129.421 50.4711C129.236 50.5947 129.112 50.8418 128.988 51.0889C128.865 51.336 128.803 51.6449 128.803 52.0155C128.803 52.5097 128.927 52.9422 129.112 53.3128C129.359 53.6835 129.668 53.9924 130.039 54.2395C130.471 54.4866 130.903 54.6719 131.521 54.7954C132.077 54.919 132.757 54.9808 133.436 54.9808C134.301 54.9808 135.042 54.919 135.722 54.7337C136.402 54.5483 137.019 54.3012 137.452 53.9306C137.946 53.5599 138.317 53.0657 138.564 52.5715C138.811 52.0155 138.934 51.3978 138.934 50.6564C138.934 50.0387 138.873 49.5445 138.687 49.112C138.502 48.6178 138.255 48.1854 137.884 47.8147ZM95.7529 46.2086H92.973C92.7876 46.2086 92.6023 46.3939 92.6023 46.5792V47.0117C92.6023 47.197 92.7876 47.3823 92.973 47.3823H95.7529C95.9382 47.3823 96.1236 47.197 96.1236 47.0117V46.5792C96.1236 46.3939 96 46.2086 95.7529 46.2086ZM122.317 34.9035H116.324V36.0773H116.942C117.56 36.0773 117.992 36.2008 118.301 36.3862C118.61 36.5715 118.734 36.9422 118.734 37.4364C118.734 37.7452 118.486 38.6101 118.425 38.919L114.903 51.2742L110.208 35.0889H108.17L103.722 51.7066L99.9537 38.4248C99.8919 38.2395 99.8301 38.0541 99.8301 37.8688C99.7066 37.3746 99.7683 36.6951 100.201 36.3862C100.448 36.2008 100.88 36.0773 101.436 36.0773H102.054V34.9035H94.3938V36.0773C94.9498 36.0773 95.5676 36.0773 96 36.3862C96.3707 36.6333 96.556 37.1275 96.6795 37.5599L101.807 54.7954H104.402L108.664 39.1661L113.236 54.7954H115.768L120.525 38.2395C120.649 37.807 120.772 37.4364 120.958 37.1275C121.328 36.3244 121.761 36.1391 122.378 36.0773V34.9035H122.317ZM126.023 52.1391C126.023 51.9537 126.023 39.5985 126.023 39.5985H122.193L121.822 40.7723C123.12 40.7723 123.305 41.2047 123.305 42.1931V52.0773C123.305 53.0657 123.12 53.4981 121.822 53.4981V54.6719H127.444V53.4981C126.208 53.5599 126.085 53.1275 126.023 52.1391Z" fill="white"/>
<path d="M16.5155 11.044H18.3565C18.6132 11.044 18.8558 11.0673 19.0845 11.114C19.3132 11.1606 19.5115 11.2423 19.6795 11.359C19.8522 11.471 19.9875 11.625 20.0855 11.821C20.1882 12.0123 20.2395 12.255 20.2395 12.549C20.2395 12.8383 20.1928 13.081 20.0995 13.277C20.0062 13.473 19.8778 13.6293 19.7145 13.746C19.5512 13.8626 19.3575 13.9466 19.1335 13.998C18.9095 14.0446 18.6668 14.068 18.4055 14.068H17.6075V16H16.5155V11.044ZM17.6075 13.144H18.3355C18.4335 13.144 18.5268 13.1346 18.6155 13.116C18.7088 13.0973 18.7905 13.067 18.8605 13.025C18.9352 12.9783 18.9935 12.9176 19.0355 12.843C19.0822 12.7636 19.1055 12.6656 19.1055 12.549C19.1055 12.423 19.0752 12.3226 19.0145 12.248C18.9585 12.1686 18.8838 12.108 18.7905 12.066C18.7018 12.024 18.6015 11.9983 18.4895 11.989C18.3775 11.975 18.2702 11.968 18.1675 11.968H17.6075V13.144Z" fill="white"/>
<path d="M23.7247 11.044H25.6427C25.8947 11.044 26.1327 11.0696 26.3567 11.121C26.5853 11.1676 26.7837 11.2493 26.9517 11.366C27.1243 11.478 27.2597 11.632 27.3577 11.828C27.4603 12.0193 27.5117 12.2596 27.5117 12.549C27.5117 12.899 27.4207 13.1976 27.2387 13.445C27.0567 13.6876 26.7907 13.8416 26.4407 13.907L27.7007 16H26.3917L25.3557 14.019H24.8167V16H23.7247V11.044ZM24.8167 13.095H25.4607C25.5587 13.095 25.6614 13.0926 25.7687 13.088C25.8807 13.0786 25.981 13.0576 26.0697 13.025C26.1583 12.9876 26.2307 12.9316 26.2867 12.857C26.3473 12.7823 26.3777 12.6773 26.3777 12.542C26.3777 12.416 26.352 12.3156 26.3007 12.241C26.2493 12.1663 26.184 12.1103 26.1047 12.073C26.0253 12.031 25.9343 12.003 25.8317 11.989C25.729 11.975 25.6287 11.968 25.5307 11.968H24.8167V13.095Z" fill="white"/>
<path d="M30.7977 13.522C30.7977 13.1253 30.8631 12.766 30.9937 12.444C31.1291 12.122 31.3157 11.849 31.5537 11.625C31.7917 11.3963 32.0741 11.2213 32.4007 11.1C32.7274 10.9786 33.0844 10.918 33.4717 10.918C33.8591 10.918 34.2161 10.9786 34.5427 11.1C34.8694 11.2213 35.1517 11.3963 35.3897 11.625C35.6277 11.849 35.8121 12.122 35.9427 12.444C36.0781 12.766 36.1457 13.1253 36.1457 13.522C36.1457 13.9186 36.0781 14.278 35.9427 14.6C35.8121 14.922 35.6277 15.1973 35.3897 15.426C35.1517 15.65 34.8694 15.8226 34.5427 15.944C34.2161 16.0653 33.8591 16.126 33.4717 16.126C33.0844 16.126 32.7274 16.0653 32.4007 15.944C32.0741 15.8226 31.7917 15.65 31.5537 15.426C31.3157 15.1973 31.1291 14.922 30.9937 14.6C30.8631 14.278 30.7977 13.9186 30.7977 13.522ZM31.9317 13.522C31.9317 13.7553 31.9667 13.97 32.0367 14.166C32.1114 14.3573 32.2164 14.5253 32.3517 14.67C32.4871 14.81 32.6481 14.9196 32.8347 14.999C33.0261 15.0783 33.2384 15.118 33.4717 15.118C33.7051 15.118 33.9151 15.0783 34.1017 14.999C34.2931 14.9196 34.4564 14.81 34.5917 14.67C34.7271 14.5253 34.8297 14.3573 34.8997 14.166C34.9744 13.97 35.0117 13.7553 35.0117 13.522C35.0117 13.2933 34.9744 13.081 34.8997 12.885C34.8297 12.689 34.7271 12.521 34.5917 12.381C34.4564 12.2363 34.2931 12.1243 34.1017 12.045C33.9151 11.9656 33.7051 11.926 33.4717 11.926C33.2384 11.926 33.0261 11.9656 32.8347 12.045C32.6481 12.1243 32.4871 12.2363 32.3517 12.381C32.2164 12.521 32.1114 12.689 32.0367 12.885C31.9667 13.081 31.9317 13.2933 31.9317 13.522Z" fill="white"/>
<path d="M43.867 14.089C43.867 14.383 43.8226 14.6536 43.734 14.901C43.6453 15.1483 43.5123 15.363 43.335 15.545C43.1623 15.727 42.9453 15.8693 42.684 15.972C42.4226 16.0746 42.1216 16.126 41.781 16.126C41.4356 16.126 41.1323 16.0746 40.871 15.972C40.6096 15.8693 40.3903 15.727 40.213 15.545C40.0403 15.363 39.9096 15.1483 39.821 14.901C39.7323 14.6536 39.688 14.383 39.688 14.089V11.044H40.78V14.047C40.78 14.201 40.8033 14.3433 40.85 14.474C40.9013 14.6046 40.9713 14.719 41.06 14.817C41.1486 14.9103 41.2536 14.985 41.375 15.041C41.501 15.0923 41.6363 15.118 41.781 15.118C41.9256 15.118 42.0586 15.0923 42.18 15.041C42.3013 14.985 42.4063 14.9103 42.495 14.817C42.5836 14.719 42.6513 14.6046 42.698 14.474C42.7493 14.3433 42.775 14.201 42.775 14.047V11.044H43.867V14.089Z" fill="white"/>
<path d="M47.6764 11.044H49.3144C49.7111 11.044 50.0868 11.0883 50.4414 11.177C50.8008 11.2656 51.1134 11.4103 51.3794 11.611C51.6454 11.807 51.8554 12.0636 52.0094 12.381C52.1681 12.6983 52.2474 13.0833 52.2474 13.536C52.2474 13.9373 52.1704 14.292 52.0164 14.6C51.8671 14.9033 51.6641 15.16 51.4074 15.37C51.1508 15.5753 50.8544 15.7316 50.5184 15.839C50.1824 15.9463 49.8301 16 49.4614 16H47.6764V11.044ZM48.7684 14.992H49.3354C49.5874 14.992 49.8208 14.9663 50.0354 14.915C50.2548 14.8636 50.4438 14.7796 50.6024 14.663C50.7611 14.5416 50.8848 14.3853 50.9734 14.194C51.0668 13.998 51.1134 13.76 51.1134 13.48C51.1134 13.2373 51.0668 13.0273 50.9734 12.85C50.8848 12.668 50.7634 12.5186 50.6094 12.402C50.4554 12.2853 50.2734 12.199 50.0634 12.143C49.8581 12.0823 49.6411 12.052 49.4124 12.052H48.7684V14.992Z" fill="white"/>
<path d="M55.83 11.044H56.922V14.992H58.945V16H55.83V11.044Z" fill="white"/>
<path d="M62.7864 13.886L60.9244 11.044H62.2824L63.3324 12.899L64.4454 11.044H65.7404L63.8784 13.886V16H62.7864V13.886Z" fill="white"/>
<path d="M76.2288 12.255C76.1401 12.143 76.0188 12.0613 75.8648 12.01C75.7155 11.954 75.5731 11.926 75.4378 11.926C75.3584 11.926 75.2768 11.9353 75.1928 11.954C75.1088 11.9726 75.0295 12.003 74.9548 12.045C74.8801 12.0823 74.8195 12.1336 74.7728 12.199C74.7261 12.2643 74.7028 12.3436 74.7028 12.437C74.7028 12.5863 74.7588 12.7006 74.8708 12.78C74.9828 12.8593 75.1228 12.927 75.2908 12.983C75.4634 13.039 75.6478 13.095 75.8438 13.151C76.0398 13.207 76.2218 13.2863 76.3898 13.389C76.5625 13.4916 76.7048 13.6293 76.8168 13.802C76.9288 13.9746 76.9848 14.2056 76.9848 14.495C76.9848 14.7703 76.9335 15.0106 76.8308 15.216C76.7281 15.4213 76.5881 15.5916 76.4108 15.727C76.2381 15.8623 76.0351 15.9626 75.8018 16.028C75.5731 16.0933 75.3305 16.126 75.0738 16.126C74.7518 16.126 74.4531 16.077 74.1778 15.979C73.9025 15.881 73.6458 15.7223 73.4078 15.503L74.1848 14.649C74.2968 14.7983 74.4368 14.915 74.6048 14.999C74.7775 15.0783 74.9548 15.118 75.1368 15.118C75.2255 15.118 75.3141 15.1086 75.4028 15.09C75.4961 15.0666 75.5778 15.034 75.6478 14.992C75.7225 14.95 75.7808 14.8963 75.8228 14.831C75.8695 14.7656 75.8928 14.6886 75.8928 14.6C75.8928 14.4506 75.8345 14.334 75.7178 14.25C75.6058 14.1613 75.4634 14.0866 75.2908 14.026C75.1181 13.9653 74.9315 13.9046 74.7308 13.844C74.5301 13.7833 74.3435 13.7016 74.1708 13.599C73.9981 13.4963 73.8535 13.361 73.7368 13.193C73.6248 13.025 73.5688 12.8033 73.5688 12.528C73.5688 12.262 73.6201 12.0286 73.7228 11.828C73.8301 11.6273 73.9701 11.4593 74.1428 11.324C74.3201 11.1886 74.5231 11.0883 74.7518 11.023C74.9805 10.953 75.2161 10.918 75.4588 10.918C75.7388 10.918 76.0094 10.9576 76.2708 11.037C76.5321 11.1163 76.7678 11.2493 76.9778 11.436L76.2288 12.255Z" fill="white"/>
<path d="M84.7773 14.089C84.7773 14.383 84.733 14.6536 84.6443 14.901C84.5556 15.1483 84.4226 15.363 84.2453 15.545C84.0726 15.727 83.8556 15.8693 83.5943 15.972C83.333 16.0746 83.032 16.126 82.6913 16.126C82.346 16.126 82.0426 16.0746 81.7813 15.972C81.52 15.8693 81.3006 15.727 81.1233 15.545C80.9506 15.363 80.82 15.1483 80.7313 14.901C80.6426 14.6536 80.5983 14.383 80.5983 14.089V11.044H81.6903V14.047C81.6903 14.201 81.7136 14.3433 81.7603 14.474C81.8116 14.6046 81.8816 14.719 81.9703 14.817C82.059 14.9103 82.164 14.985 82.2853 15.041C82.4113 15.0923 82.5466 15.118 82.6913 15.118C82.836 15.118 82.969 15.0923 83.0903 15.041C83.2116 14.985 83.3166 14.9103 83.4053 14.817C83.494 14.719 83.5616 14.6046 83.6083 14.474C83.6596 14.3433 83.6853 14.201 83.6853 14.047V11.044H84.7773V14.089Z" fill="white"/>
<path d="M88.5868 11.044H90.4278C90.6845 11.044 90.9271 11.0673 91.1558 11.114C91.3845 11.1606 91.5828 11.2423 91.7508 11.359C91.9235 11.471 92.0588 11.625 92.1568 11.821C92.2595 12.0123 92.3108 12.255 92.3108 12.549C92.3108 12.8383 92.2641 13.081 92.1708 13.277C92.0775 13.473 91.9491 13.6293 91.7858 13.746C91.6225 13.8626 91.4288 13.9466 91.2048 13.998C90.9808 14.0446 90.7381 14.068 90.4768 14.068H89.6788V16H88.5868V11.044ZM89.6788 13.144H90.4068C90.5048 13.144 90.5981 13.1346 90.6868 13.116C90.7801 13.0973 90.8618 13.067 90.9318 13.025C91.0065 12.9783 91.0648 12.9176 91.1068 12.843C91.1535 12.7636 91.1768 12.6656 91.1768 12.549C91.1768 12.423 91.1465 12.3226 91.0858 12.248C91.0298 12.1686 90.9551 12.108 90.8618 12.066C90.7731 12.024 90.6728 11.9983 90.5608 11.989C90.4488 11.975 90.3415 11.968 90.2388 11.968H89.6788V13.144Z" fill="white"/>
<path d="M95.796 11.044H97.637C97.8936 11.044 98.1363 11.0673 98.365 11.114C98.5936 11.1606 98.792 11.2423 98.96 11.359C99.1326 11.471 99.268 11.625 99.366 11.821C99.4686 12.0123 99.52 12.255 99.52 12.549C99.52 12.8383 99.4733 13.081 99.38 13.277C99.2866 13.473 99.1583 13.6293 98.995 13.746C98.8316 13.8626 98.638 13.9466 98.414 13.998C98.19 14.0446 97.9473 14.068 97.686 14.068H96.888V16H95.796V11.044ZM96.888 13.144H97.616C97.714 13.144 97.8073 13.1346 97.896 13.116C97.9893 13.0973 98.071 13.067 98.141 13.025C98.2156 12.9783 98.274 12.9176 98.316 12.843C98.3626 12.7636 98.386 12.6656 98.386 12.549C98.386 12.423 98.3556 12.3226 98.295 12.248C98.239 12.1686 98.1643 12.108 98.071 12.066C97.9823 12.024 97.882 11.9983 97.77 11.989C97.658 11.975 97.5506 11.968 97.448 11.968H96.888V13.144Z" fill="white"/>
<path d="M102.739 13.522C102.739 13.1253 102.804 12.766 102.935 12.444C103.07 12.122 103.257 11.849 103.495 11.625C103.733 11.3963 104.015 11.2213 104.342 11.1C104.669 10.9786 105.026 10.918 105.413 10.918C105.8 10.918 106.157 10.9786 106.484 11.1C106.811 11.2213 107.093 11.3963 107.331 11.625C107.569 11.849 107.753 12.122 107.884 12.444C108.019 12.766 108.087 13.1253 108.087 13.522C108.087 13.9186 108.019 14.278 107.884 14.6C107.753 14.922 107.569 15.1973 107.331 15.426C107.093 15.65 106.811 15.8226 106.484 15.944C106.157 16.0653 105.8 16.126 105.413 16.126C105.026 16.126 104.669 16.0653 104.342 15.944C104.015 15.8226 103.733 15.65 103.495 15.426C103.257 15.1973 103.07 14.922 102.935 14.6C102.804 14.278 102.739 13.9186 102.739 13.522ZM103.873 13.522C103.873 13.7553 103.908 13.97 103.978 14.166C104.053 14.3573 104.158 14.5253 104.293 14.67C104.428 14.81 104.589 14.9196 104.776 14.999C104.967 15.0783 105.18 15.118 105.413 15.118C105.646 15.118 105.856 15.0783 106.043 14.999C106.234 14.9196 106.398 14.81 106.533 14.67C106.668 14.5253 106.771 14.3573 106.841 14.166C106.916 13.97 106.953 13.7553 106.953 13.522C106.953 13.2933 106.916 13.081 106.841 12.885C106.771 12.689 106.668 12.521 106.533 12.381C106.398 12.2363 106.234 12.1243 106.043 12.045C105.856 11.9656 105.646 11.926 105.413 11.926C105.18 11.926 104.967 11.9656 104.776 12.045C104.589 12.1243 104.428 12.2363 104.293 12.381C104.158 12.521 104.053 12.689 103.978 12.885C103.908 13.081 103.873 13.2933 103.873 13.522Z" fill="white"/>
<path d="M111.629 11.044H113.547C113.799 11.044 114.037 11.0696 114.261 11.121C114.49 11.1676 114.688 11.2493 114.856 11.366C115.029 11.478 115.164 11.632 115.262 11.828C115.365 12.0193 115.416 12.2596 115.416 12.549C115.416 12.899 115.325 13.1976 115.143 13.445C114.961 13.6876 114.695 13.8416 114.345 13.907L115.605 16H114.296L113.26 14.019H112.721V16H111.629V11.044ZM112.721 13.095H113.365C113.463 13.095 113.566 13.0926 113.673 13.088C113.785 13.0786 113.886 13.0576 113.974 13.025C114.063 12.9876 114.135 12.9316 114.191 12.857C114.252 12.7823 114.282 12.6773 114.282 12.542C114.282 12.416 114.257 12.3156 114.205 12.241C114.154 12.1663 114.089 12.1103 114.009 12.073C113.93 12.031 113.839 12.003 113.736 11.989C113.634 11.975 113.533 11.968 113.435 11.968H112.721V13.095Z" fill="white"/>
<path d="M119.804 12.01H118.39V11.044H122.31V12.01H120.896V16H119.804V12.01Z" fill="white"/>
<path d="M125.651 11.044H126.743V16H125.651V11.044Z" fill="white"/>
<path d="M130.536 11.044H132.02L134.127 14.488H134.141V11.044H135.233V16H133.805L131.642 12.472H131.628V16H130.536V11.044Z" fill="white"/>
<path d="M143.531 15.65C143.209 15.818 142.873 15.9393 142.523 16.014C142.173 16.0886 141.816 16.126 141.452 16.126C141.065 16.126 140.708 16.0653 140.381 15.944C140.055 15.8226 139.772 15.65 139.534 15.426C139.296 15.1973 139.11 14.922 138.974 14.6C138.844 14.278 138.778 13.9186 138.778 13.522C138.778 13.1253 138.844 12.766 138.974 12.444C139.11 12.122 139.296 11.849 139.534 11.625C139.772 11.3963 140.055 11.2213 140.381 11.1C140.708 10.9786 141.065 10.918 141.452 10.918C141.849 10.918 142.213 10.967 142.544 11.065C142.88 11.1583 143.174 11.3216 143.426 11.555L142.656 12.395C142.507 12.241 142.339 12.1243 142.152 12.045C141.966 11.9656 141.732 11.926 141.452 11.926C141.219 11.926 141.007 11.9656 140.815 12.045C140.629 12.1243 140.468 12.2363 140.332 12.381C140.197 12.521 140.092 12.689 140.017 12.885C139.947 13.081 139.912 13.2933 139.912 13.522C139.912 13.7553 139.947 13.97 140.017 14.166C140.092 14.3573 140.197 14.5253 140.332 14.67C140.468 14.81 140.629 14.9196 140.815 14.999C141.007 15.0783 141.219 15.118 141.452 15.118C141.69 15.118 141.896 15.0923 142.068 15.041C142.241 14.985 142.379 14.929 142.481 14.873V14.068H141.592V13.06H143.531V15.65Z" fill="white"/>
</svg>
