<svg width="1040" height="37" viewBox="0 0 1040 37" fill="none" xmlns="http://www.w3.org/2000/svg">
<path d="M11.0584 30.412V0.799988H7.09842V30.94C7.09842 31.732 6.70242 32.216 6.04242 32.216C5.33842 32.216 4.94241 31.732 4.94241 30.94V22.536H0.982422V30.412C0.982422 33.976 3.13842 36.44 6.04242 36.44C8.90242 36.44 11.0584 33.976 11.0584 30.412Z" fill="black"/>
<path d="M27.632 36L24.728 0.799988H19.536L16.676 36H20.328L20.724 29.62H23.144L23.408 36H27.632ZM22.88 25.132H21.076L22.132 11.096L22.88 25.132Z" fill="black"/>
<path d="M43.7205 0.799988H39.9805L38.2645 13.868L36.4165 0.799988H32.4565L35.9325 20.38V36H40.1125V20.38L43.7205 0.799988Z" fill="black"/>
<path d="M75.0925 36V0.799988H69.8565L66.9525 20.688L64.6645 0.799988H58.6365V36H62.2885V11.316L65.0605 36H67.9205L71.0005 11.36V36H75.0925Z" fill="black"/>
<path d="M90.9312 30.852V26.496H86.9271V31.204C86.9271 31.776 86.5751 32.26 86.0911 32.26C85.6511 32.26 85.2551 31.776 85.2551 31.204V14.836C85.2551 14.264 85.6511 13.78 86.0911 13.78C86.5751 13.78 86.9271 14.264 86.9271 14.836V19.544H90.9312V15.144C90.9312 11.844 88.7751 9.55599 86.0911 9.55599C83.4511 9.55599 81.2951 11.844 81.2951 15.144V30.852C81.2951 34.196 83.4511 36.44 86.0911 36.44C88.7751 36.44 90.9312 34.196 90.9312 30.852Z" fill="black"/>
<path d="M107.077 36V18.796H102.061V22.58H103.029V31.16C103.029 31.952 102.589 32.436 101.885 32.436C101.225 32.436 100.785 31.952 100.785 31.16V6.07999C100.785 5.28799 101.181 4.80399 101.841 4.80399C102.545 4.80399 102.897 5.28799 102.897 6.07999V13.604H106.901V6.38799C106.901 2.82399 104.701 0.359985 101.841 0.359985C98.9811 0.359985 96.7811 2.82399 96.7811 6.38799V30.412C96.7811 34.372 98.5851 36.44 101.357 36.44C102.457 36.44 103.601 36 104.173 35.164L104.525 36H107.077Z" fill="black"/>
<path d="M122.81 30.412V0.799988H119.07V30.72C119.07 31.512 118.674 31.996 117.97 31.996C117.31 31.996 116.914 31.512 116.914 30.72V0.799988H112.999V30.412C112.999 33.976 115.11 36.44 117.97 36.44C120.83 36.44 122.81 33.976 122.81 30.412Z" fill="black"/>
<path d="M133.313 36V0.799988H129.177V36H133.313Z" fill="black"/>
<path d="M150.85 36V0.799988H147.462V20.336L143.942 0.799988H139.762V36H143.194V16.772L147.418 36H150.85Z" fill="black"/>
<path d="M165.717 36V31.776H161.273V19.984H164.265V15.76H161.273V5.02399H165.717V0.799988H157.181V36H165.717Z" fill="black"/>
<path d="M181.625 29.664C181.625 25.968 179.821 21.392 177.929 16.904C175.993 12.284 175.201 10.832 175.201 6.16799C175.201 5.11199 175.905 4.58399 176.477 4.58399C177.049 4.58399 177.709 5.11199 177.709 6.16799V11.536H181.537V6.82799C181.537 3.26399 179.425 0.359985 176.565 0.359985C172.781 0.359985 171.065 3.26399 171.065 7.35599C171.065 11.008 173.353 16.552 174.893 20.116C176.697 24.252 177.489 27.068 177.489 30.588C177.489 31.732 176.961 32.436 176.169 32.436C175.333 32.436 174.717 31.512 174.717 30.588V25.704H170.933V29.972C170.933 33.536 172.957 36.44 176.257 36.44C178.369 36.44 181.625 35.164 181.625 29.664Z" fill="black"/>
<path d="M197.755 29.664C197.755 25.968 195.951 21.392 194.059 16.904C192.123 12.284 191.331 10.832 191.331 6.16799C191.331 5.11199 192.035 4.58399 192.607 4.58399C193.179 4.58399 193.839 5.11199 193.839 6.16799V11.536H197.667V6.82799C197.667 3.26399 195.555 0.359985 192.695 0.359985C188.911 0.359985 187.195 3.26399 187.195 7.35599C187.195 11.008 189.483 16.552 191.023 20.116C192.827 24.252 193.619 27.068 193.619 30.588C193.619 31.732 193.091 32.436 192.299 32.436C191.463 32.436 190.847 31.512 190.847 30.588V25.704H187.063V29.972C187.063 33.536 189.087 36.44 192.387 36.44C194.499 36.44 197.755 35.164 197.755 29.664Z" fill="black"/>
<path d="M276.384 0.799988H272.644L270.928 19.324L269.388 0.799988H266.968L265.472 19.324L263.888 0.799988H259.84L263.404 36H266.616L268.2 19.148L269.74 36H272.776L276.384 0.799988Z" fill="black"/>
<path d="M290.584 36V31.776H286.14V19.984H289.132V15.76H286.14V5.02399H290.584V0.799988H282.048V36H290.584Z" fill="black"/>
<path d="M307.548 36V0.799988H304.16V20.336L300.64 0.799988H296.46V36H299.892V16.772L304.116 36H307.548Z" fill="black"/>
<path d="M324.219 30.456V6.34399C324.219 1.85599 321.623 0.799988 319.555 0.799988H313.879V36H319.555C321.623 36 324.219 34.944 324.219 30.456ZM320.171 30.412C320.171 31.424 319.863 31.82 319.423 31.82H317.971V5.02399H319.423C319.863 5.02399 320.171 5.41999 320.171 6.43199V30.412Z" fill="black"/>
<path d="M334.708 36V0.799988H330.572V36H334.708Z" fill="black"/>
<path d="M360.614 15.804V6.34399C360.614 1.85599 358.018 0.799988 355.95 0.799988H350.626V36H354.762V21.304H355.95C358.018 21.304 360.614 20.248 360.614 15.804ZM356.566 15.672C356.566 16.684 356.302 17.08 355.818 17.08H354.762V5.02399H355.818C356.302 5.02399 356.566 5.41999 356.566 6.43199V15.672Z" fill="black"/>
<path d="M375.207 36V31.776H370.763V19.984H373.755V15.76H370.763V5.02399H375.207V0.799988H366.671V36H375.207Z" fill="black"/>
<path d="M390.323 5.41999V0.799988H380.555V5.41999H383.503V36H387.595V5.41999H390.323Z" fill="black"/>
<path d="M404.675 36V31.776H400.231V19.984H403.223V15.76H400.231V5.02399H404.675V0.799988H396.139V36H404.675Z" fill="black"/>
<path d="M421.199 36C420.935 34.284 420.627 32.348 420.627 30.104V22.624C420.627 20.952 419.747 19.896 418.647 18.972C419.747 18.048 420.539 16.992 420.539 15.32V6.34399C420.539 1.85599 417.943 0.799988 415.875 0.799988H410.551V36H414.687V20.864H415.655C416.271 20.864 416.579 21.48 416.579 22.272V30.544C416.579 32.392 416.799 34.46 417.107 36H421.199ZM416.491 15.452C416.491 16.464 416.227 16.86 415.743 16.86H414.687V5.02399H415.743C416.227 5.02399 416.491 5.41999 416.491 6.43199V15.452Z" fill="black"/>
<path d="M436.928 29.664C436.928 25.968 435.124 21.392 433.232 16.904C431.296 12.284 430.504 10.832 430.504 6.16799C430.504 5.11199 431.208 4.58399 431.78 4.58399C432.352 4.58399 433.012 5.11199 433.012 6.16799V11.536H436.84V6.82799C436.84 3.26399 434.728 0.359985 431.868 0.359985C428.084 0.359985 426.368 3.26399 426.368 7.35599C426.368 11.008 428.656 16.552 430.196 20.116C432 24.252 432.792 27.068 432.792 30.588C432.792 31.732 432.264 32.436 431.472 32.436C430.636 32.436 430.02 31.512 430.02 30.588V25.704H426.236V29.972C426.236 33.536 428.26 36.44 431.56 36.44C433.672 36.44 436.928 35.164 436.928 29.664Z" fill="black"/>
<path d="M510.716 36L507.68 16.948L510.232 0.799988H506.316L503.94 16.904V0.799988H499.848V36H503.94V26.936L504.82 22.492L506.58 36H510.716Z" fill="black"/>
<path d="M520.333 36V0.799988H516.197V36H520.333Z" fill="black"/>
<path d="M543.237 36V0.799988H538.001L535.097 20.688L532.809 0.799988H526.781V36H530.433V11.316L533.205 36H536.065L539.145 11.36V36H543.237Z" fill="black"/>
<path d="M559.56 30.456V21.744C559.56 20.072 558.812 19.016 557.668 18.092C558.812 17.168 559.56 16.112 559.56 14.44V6.34399C559.56 1.85599 556.964 0.799988 554.896 0.799988H549.572V36H554.896C556.964 36 559.56 34.944 559.56 30.456ZM555.512 14.792C555.512 15.804 555.248 16.2 554.764 16.2H553.708V5.02399H554.764C555.248 5.02399 555.512 5.41999 555.512 6.43199V14.792ZM555.512 30.412C555.512 31.424 555.248 31.82 554.764 31.82H553.708V20.204H554.764C555.248 20.204 555.512 20.6 555.512 21.612V30.412Z" fill="black"/>
<path d="M574.324 36V31.776H569.88V19.984H572.872V15.76H569.88V5.02399H574.324V0.799988H565.788V36H574.324Z" fill="black"/>
<path d="M590.848 36C590.584 34.284 590.276 32.348 590.276 30.104V22.624C590.276 20.952 589.396 19.896 588.296 18.972C589.396 18.048 590.188 16.992 590.188 15.32V6.34399C590.188 1.85599 587.592 0.799988 585.524 0.799988H580.2V36H584.336V20.864H585.304C585.92 20.864 586.228 21.48 586.228 22.272V30.544C586.228 32.392 586.448 34.46 586.756 36H590.848ZM586.14 15.452C586.14 16.464 585.876 16.86 585.392 16.86H584.336V5.02399H585.392C585.876 5.02399 586.14 5.41999 586.14 6.43199V15.452Z" fill="black"/>
<path d="M605.081 36V31.776H600.681V0.799988H596.545V36H605.081Z" fill="black"/>
<path d="M619.321 36V31.776H614.877V19.984H617.869V15.76H614.877V5.02399H619.321V0.799988H610.785V36H619.321Z" fill="black"/>
<path d="M635.581 0.799988H631.841L630.125 13.868L628.277 0.799988H624.317L627.793 20.38V36H631.973V20.38L635.581 0.799988Z" fill="black"/>
<path d="M666.205 0.799988H662.465L660.749 19.324L659.209 0.799988H656.789L655.293 19.324L653.709 0.799988H649.661L653.225 36H656.437L658.021 19.148L659.561 36H662.597L666.205 0.799988Z" fill="black"/>
<path d="M682.209 36L679.305 0.799988H674.113L671.253 36H674.905L675.301 29.62H677.721L677.985 36H682.209ZM677.457 25.132H675.653L676.709 11.096L677.457 25.132Z" fill="black"/>
<path d="M696.45 36V31.776H692.05V0.799988H687.914V36H696.45Z" fill="black"/>
<path d="M712.186 29.664C712.186 25.968 710.382 21.392 708.49 16.904C706.554 12.284 705.762 10.832 705.762 6.16799C705.762 5.11199 706.466 4.58399 707.038 4.58399C707.61 4.58399 708.27 5.11199 708.27 6.16799V11.536H712.098V6.82799C712.098 3.26399 709.986 0.359985 707.126 0.359985C703.342 0.359985 701.626 3.26399 701.626 7.35599C701.626 11.008 703.914 16.552 705.454 20.116C707.258 24.252 708.05 27.068 708.05 30.588C708.05 31.732 707.522 32.436 706.73 32.436C705.894 32.436 705.278 31.512 705.278 30.588V25.704H701.494V29.972C701.494 33.536 703.518 36.44 706.818 36.44C708.93 36.44 712.186 35.164 712.186 29.664Z" fill="black"/>
<path d="M728.624 36V0.799988H724.532V16.42H722.376V0.799988H718.284V36H722.376V20.864H724.532V36H728.624Z" fill="black"/>
<path d="M777.014 36L775.034 12H771.494L769.544 36H772.034L772.304 31.65H773.954L774.134 36H777.014ZM773.774 28.59H772.544L773.264 19.02L773.774 28.59Z" fill="black"/>
<path d="M788.463 36V12H786.153V25.32L783.753 12H780.903V36H783.243V22.89L786.123 36H788.463Z" fill="black"/>
<path d="M799.83 32.22V15.78C799.83 12.72 798.06 12 796.65 12H792.78V36H796.65C798.06 36 799.83 35.28 799.83 32.22ZM797.07 32.19C797.07 32.88 796.86 33.15 796.56 33.15H795.57V14.88H796.56C796.86 14.88 797.07 15.15 797.07 15.84V32.19Z" fill="black"/>
<path d="M855.273 36V0.799988H850.037L847.133 20.688L844.845 0.799988H838.817V36H842.469V11.316L845.241 36H848.101L851.181 11.36V36H855.273Z" fill="black"/>
<path d="M871.947 36L869.043 0.799988H863.851L860.991 36H864.643L865.039 29.62H867.459L867.723 36H871.947ZM867.195 25.132H865.391L866.447 11.096L867.195 25.132Z" fill="black"/>
<path d="M886.892 5.41999V0.799988H877.124V5.41999H880.072V36H884.164V5.41999H886.892Z" fill="black"/>
<path d="M901.948 5.41999V0.799988H892.18V5.41999H895.128V36H899.22V5.41999H901.948Z" fill="black"/>
<path d="M918.104 36V0.799988H914.012V16.42H911.856V0.799988H907.764V36H911.856V20.864H914.012V36H918.104Z" fill="black"/>
<path d="M932.989 36V31.776H928.545V19.984H931.537V15.76H928.545V5.02399H932.989V0.799988H924.453V36H932.989Z" fill="black"/>
<path d="M954.573 0.799988H950.833L949.117 19.324L947.577 0.799988H945.157L943.661 19.324L942.077 0.799988H938.029L941.593 36H944.805L946.389 19.148L947.929 36H950.965L954.573 0.799988Z" fill="black"/>
<path d="M980.576 36L977.54 16.948L980.092 0.799988H976.176L973.8 16.904V0.799988H969.708V36H973.8V26.936L974.68 22.492L976.44 36H980.576Z" fill="black"/>
<path d="M994.46 36V31.776H990.016V19.984H993.008V15.76H990.016V5.02399H994.46V0.799988H985.924V36H994.46Z" fill="black"/>
<path d="M1008.87 36V31.776H1004.47V0.799988H1000.34V36H1008.87Z" fill="black"/>
<path d="M1023.11 36V31.776H1018.71V0.799988H1014.58V36H1023.11Z" fill="black"/>
<path d="M1039.2 0.799988H1035.46L1033.74 13.868L1031.9 0.799988H1027.94L1031.41 20.38V36H1035.59V20.38L1039.2 0.799988Z" fill="black"/>
</svg>
