<svg width="464" height="82" viewBox="0 0 464 82" fill="none" xmlns="http://www.w3.org/2000/svg">
<path d="M10.1865 81L7.42651 63.68L9.74652 49H6.18651L4.02652 63.64V49H0.306519V81H4.02652V72.76L4.82651 68.72L6.42651 81H10.1865Z" fill="black"/>
<path d="M18.9287 81V49H15.1687V81H18.9287Z" fill="black"/>
<path d="M39.7509 81V49H34.9909L32.3509 67.08L30.2709 49H24.7909V81H28.1109V58.56L30.6309 81H33.2309L36.0309 58.6V81H39.7509Z" fill="black"/>
<path d="M54.5896 75.96V68.04C54.5896 66.52 53.9096 65.56 52.8696 64.72C53.9096 63.88 54.5896 62.92 54.5896 61.4V54.04C54.5896 49.96 52.2296 49 50.3496 49H45.5096V81H50.3496C52.2296 81 54.5896 80.04 54.5896 75.96ZM50.9096 61.72C50.9096 62.64 50.6696 63 50.2296 63H49.2696V52.84H50.2296C50.6696 52.84 50.9096 53.2 50.9096 54.12V61.72ZM50.9096 75.92C50.9096 76.84 50.6696 77.2 50.2296 77.2H49.2696V66.64H50.2296C50.6696 66.64 50.9096 67 50.9096 67.92V75.92Z" fill="black"/>
<path d="M68.0118 81V77.16H63.9718V66.44H66.6918V62.6H63.9718V52.84H68.0118V49H60.2518V81H68.0118Z" fill="black"/>
<path d="M83.0334 81C82.7934 79.44 82.5134 77.68 82.5134 75.64V68.84C82.5134 67.32 81.7134 66.36 80.7134 65.52C81.7134 64.68 82.4334 63.72 82.4334 62.2V54.04C82.4334 49.96 80.0734 49 78.1934 49H73.3534V81H77.1134V67.24H77.9934C78.5534 67.24 78.8334 67.8 78.8334 68.52V76.04C78.8334 77.72 79.0334 79.6 79.3134 81H83.0334ZM78.7534 62.32C78.7534 63.24 78.5134 63.6 78.0734 63.6H77.1134V52.84H78.0734C78.5134 52.84 78.7534 53.2 78.7534 54.12V62.32Z" fill="black"/>
<path d="M95.9728 81V77.16H91.9728V49H88.2128V81H95.9728Z" fill="black"/>
<path d="M108.918 81V77.16H104.878V66.44H107.598V62.6H104.878V52.84H108.918V49H101.158V81H108.918Z" fill="black"/>
<path d="M123.7 49H120.3L118.74 60.88L117.06 49H113.46L116.62 66.8V81H120.42V66.8L123.7 49Z" fill="black"/>
<path d="M151.54 49H148.14L146.58 65.84L145.18 49H142.98L141.62 65.84L140.18 49H136.5L139.74 81H142.66L144.1 65.68L145.5 81H148.26L151.54 49Z" fill="black"/>
<path d="M166.089 81L163.449 49H158.729L156.129 81H159.449L159.809 75.2H162.009L162.249 81H166.089ZM161.769 71.12H160.129L161.089 58.36L161.769 71.12Z" fill="black"/>
<path d="M179.035 81V77.16H175.035V49H171.275V81H179.035Z" fill="black"/>
<path d="M193.341 75.24C193.341 71.88 191.701 67.72 189.981 63.64C188.221 59.44 187.501 58.12 187.501 53.88C187.501 52.92 188.141 52.44 188.661 52.44C189.181 52.44 189.781 52.92 189.781 53.88V58.76H193.261V54.48C193.261 51.24 191.341 48.6 188.741 48.6C185.301 48.6 183.741 51.24 183.741 54.96C183.741 58.28 185.821 63.32 187.221 66.56C188.861 70.32 189.581 72.88 189.581 76.08C189.581 77.12 189.101 77.76 188.381 77.76C187.621 77.76 187.061 76.92 187.061 76.08V71.64H183.621V75.52C183.621 78.76 185.461 81.4 188.461 81.4C190.381 81.4 193.341 80.24 193.341 75.24Z" fill="black"/>
<path d="M208.285 81V49H204.565V63.2H202.605V49H198.885V81H202.605V67.24H204.565V81H208.285Z" fill="black"/>
<path d="M236.563 81L234.979 61.8H232.147L230.587 81H232.579L232.795 77.52H234.115L234.259 81H236.563ZM233.971 75.072H232.987L233.563 67.416L233.971 75.072Z" fill="black"/>
<path d="M245.723 81V61.8H243.875V72.456L241.955 61.8H239.675V81H241.547V70.512L243.851 81H245.723Z" fill="black"/>
<path d="M254.816 77.976V64.824C254.816 62.376 253.4 61.8 252.272 61.8H249.176V81H252.272C253.4 81 254.816 80.424 254.816 77.976ZM252.608 77.952C252.608 78.504 252.44 78.72 252.2 78.72H251.408V64.104H252.2C252.44 64.104 252.608 64.32 252.608 64.872V77.952Z" fill="black"/>
<path d="M295.906 81V49H291.146L288.506 67.08L286.426 49H280.946V81H284.266V58.56L286.786 81H289.386L292.186 58.6V81H295.906Z" fill="black"/>
<path d="M311.064 81L308.424 49H303.704L301.104 81H304.424L304.784 75.2H306.984L307.224 81H311.064ZM306.744 71.12H305.104L306.064 58.36L306.744 71.12Z" fill="black"/>
<path d="M324.65 53.2V49H315.77V53.2H318.45V81H322.17V53.2H324.65Z" fill="black"/>
<path d="M338.338 53.2V49H329.458V53.2H332.138V81H335.858V53.2H338.338Z" fill="black"/>
<path d="M353.025 81V49H349.305V63.2H347.345V49H343.625V81H347.345V67.24H349.305V81H353.025Z" fill="black"/>
<path d="M366.557 81V77.16H362.517V66.44H365.237V62.6H362.517V52.84H366.557V49H358.797V81H366.557Z" fill="black"/>
<path d="M386.179 49H382.779L381.219 65.84L379.819 49H377.619L376.259 65.84L374.819 49H371.139L374.379 81H377.299L378.739 65.68L380.139 81H382.899L386.179 49Z" fill="black"/>
<path d="M409.818 81L407.058 63.68L409.378 49H405.818L403.658 63.64V49H399.938V81H403.658V72.76L404.458 68.72L406.058 81H409.818Z" fill="black"/>
<path d="M422.44 81V77.16H418.4V66.44H421.12V62.6H418.4V52.84H422.44V49H414.68V81H422.44Z" fill="black"/>
<path d="M435.542 81V77.16H431.542V49H427.781V81H435.542Z" fill="black"/>
<path d="M448.487 81V77.16H444.487V49H440.727V81H448.487Z" fill="black"/>
<path d="M463.112 49H459.712L458.152 60.88L456.472 49H452.872L456.032 66.8V81H459.832V66.8L463.112 49Z" fill="black"/>
<path d="M42.2756 27.92V1.00001H38.6756V28.4C38.6756 29.12 38.3156 29.56 37.7156 29.56C37.0756 29.56 36.7156 29.12 36.7156 28.4V20.76H33.1156V27.92C33.1156 31.16 35.0756 33.4 37.7156 33.4C40.3156 33.4 42.2756 31.16 42.2756 27.92Z" fill="black"/>
<path d="M57.3425 33L54.7025 1.00001H49.9825L47.3825 33H50.7025L51.0625 27.2H53.2625L53.5025 33H57.3425ZM53.0225 23.12H51.3825L52.3425 10.36L53.0225 23.12Z" fill="black"/>
<path d="M71.9684 1.00001H68.5684L67.0084 12.88L65.3284 1.00001H61.7284L64.8884 18.8V33H68.6884V18.8L71.9684 1.00001Z" fill="black"/>
<path d="M100.488 33V1.00001H95.7284L93.0884 19.08L91.0084 1.00001H85.5284V33H88.8484V10.56L91.3684 33H93.9684L96.7684 10.6V33H100.488Z" fill="black"/>
<path d="M114.887 28.32V24.36H111.247V28.64C111.247 29.16 110.927 29.6 110.487 29.6C110.087 29.6 109.727 29.16 109.727 28.64V13.76C109.727 13.24 110.087 12.8 110.487 12.8C110.927 12.8 111.247 13.24 111.247 13.76V18.04H114.887V14.04C114.887 11.04 112.927 8.96001 110.487 8.96001C108.087 8.96001 106.127 11.04 106.127 14.04V28.32C106.127 31.36 108.087 33.4 110.487 33.4C112.927 33.4 114.887 31.36 114.887 28.32Z" fill="black"/>
<path d="M129.565 33V17.36H125.005V20.8H125.885V28.6C125.885 29.32 125.485 29.76 124.845 29.76C124.245 29.76 123.845 29.32 123.845 28.6V5.80001C123.845 5.08001 124.205 4.64001 124.805 4.64001C125.445 4.64001 125.765 5.08001 125.765 5.80001V12.64H129.405V6.08001C129.405 2.84001 127.405 0.600006 124.805 0.600006C122.205 0.600006 120.205 2.84001 120.205 6.08001V27.92C120.205 31.52 121.845 33.4 124.365 33.4C125.365 33.4 126.405 33 126.925 32.24L127.245 33H129.565Z" fill="black"/>
<path d="M143.868 27.92V1.00001H140.468V28.2C140.468 28.92 140.108 29.36 139.468 29.36C138.868 29.36 138.508 28.92 138.508 28.2V1.00001H134.948V27.92C134.948 31.16 136.868 33.4 139.468 33.4C142.068 33.4 143.868 31.16 143.868 27.92Z" fill="black"/>
<path d="M153.416 33V1.00001H149.656V33H153.416Z" fill="black"/>
<path d="M169.358 33V1.00001H166.278V18.76L163.078 1.00001H159.278V33H162.398V15.52L166.238 33H169.358Z" fill="black"/>
<path d="M182.874 33V29.16H178.834V18.44H181.554V14.6H178.834V4.84001H182.874V1.00001H175.114V33H182.874Z" fill="black"/>
<path d="M197.336 27.24C197.336 23.88 195.696 19.72 193.976 15.64C192.216 11.44 191.496 10.12 191.496 5.88001C191.496 4.92001 192.136 4.44001 192.656 4.44001C193.176 4.44001 193.776 4.92001 193.776 5.88001V10.76H197.256V6.48001C197.256 3.24001 195.336 0.600006 192.736 0.600006C189.296 0.600006 187.736 3.24001 187.736 6.96001C187.736 10.28 189.816 15.32 191.216 18.56C192.856 22.32 193.576 24.88 193.576 28.08C193.576 29.12 193.096 29.76 192.376 29.76C191.616 29.76 191.056 28.92 191.056 28.08V23.64H187.616V27.52C187.616 30.76 189.456 33.4 192.456 33.4C194.376 33.4 197.336 32.24 197.336 27.24Z" fill="black"/>
<path d="M212 27.24C212 23.88 210.36 19.72 208.64 15.64C206.88 11.44 206.16 10.12 206.16 5.88001C206.16 4.92001 206.8 4.44001 207.32 4.44001C207.84 4.44001 208.44 4.92001 208.44 5.88001V10.76H211.92V6.48001C211.92 3.24001 210 0.600006 207.4 0.600006C203.96 0.600006 202.4 3.24001 202.4 6.96001C202.4 10.28 204.48 15.32 205.88 18.56C207.52 22.32 208.24 24.88 208.24 28.08C208.24 29.12 207.76 29.76 207.04 29.76C206.28 29.76 205.72 28.92 205.72 28.08V23.64H202.28V27.52C202.28 30.76 204.12 33.4 207.12 33.4C209.04 33.4 212 32.24 212 27.24Z" fill="black"/>
<path d="M274.871 1.00001H271.471L269.911 17.84L268.511 1.00001H266.311L264.951 17.84L263.511 1.00001H259.831L263.071 33H265.991L267.431 17.68L268.831 33H271.591L274.871 1.00001Z" fill="black"/>
<path d="M287.781 33V29.16H283.741V18.44H286.461V14.6H283.741V4.84001H287.781V1.00001H280.021V33H287.781Z" fill="black"/>
<path d="M303.202 33V1.00001H300.122V18.76L296.922 1.00001H293.122V33H296.242V15.52L300.082 33H303.202Z" fill="black"/>
<path d="M318.358 27.96V6.04001C318.358 1.96001 315.998 1.00001 314.118 1.00001H308.958V33H314.118C315.998 33 318.358 32.04 318.358 27.96ZM314.678 27.92C314.678 28.84 314.398 29.2 313.998 29.2H312.678V4.84001H313.998C314.398 4.84001 314.678 5.20001 314.678 6.12001V27.92Z" fill="black"/>
<path d="M327.893 33V1.00001H324.133V33H327.893Z" fill="black"/>
<path d="M351.444 14.64V6.04001C351.444 1.96001 349.084 1.00001 347.204 1.00001H342.364V33H346.124V19.64H347.204C349.084 19.64 351.444 18.68 351.444 14.64ZM347.764 14.52C347.764 15.44 347.524 15.8 347.084 15.8H346.124V4.84001H347.084C347.524 4.84001 347.764 5.20001 347.764 6.12001V14.52Z" fill="black"/>
<path d="M364.71 33V29.16H360.67V18.44H363.39V14.6H360.67V4.84001H364.71V1.00001H356.95V33H364.71Z" fill="black"/>
<path d="M378.452 5.20001V1.00001H369.572V5.20001H372.252V33H375.972V5.20001H378.452Z" fill="black"/>
<path d="M391.499 33V29.16H387.459V18.44H390.179V14.6H387.459V4.84001H391.499V1.00001H383.739V33H391.499Z" fill="black"/>
<path d="M406.521 33C406.281 31.44 406.001 29.68 406.001 27.64V20.84C406.001 19.32 405.201 18.36 404.201 17.52C405.201 16.68 405.921 15.72 405.921 14.2V6.04001C405.921 1.96001 403.561 1.00001 401.681 1.00001H396.841V33H400.601V19.24H401.481C402.041 19.24 402.321 19.8 402.321 20.52V28.04C402.321 29.72 402.521 31.6 402.801 33H406.521ZM402.241 14.32C402.241 15.24 402.001 15.6 401.561 15.6H400.601V4.84001H401.561C402.001 4.84001 402.241 5.20001 402.241 6.12001V14.32Z" fill="black"/>
<path d="M420.82 27.24C420.82 23.88 419.18 19.72 417.46 15.64C415.7 11.44 414.98 10.12 414.98 5.88001C414.98 4.92001 415.62 4.44001 416.14 4.44001C416.66 4.44001 417.26 4.92001 417.26 5.88001V10.76H420.74V6.48001C420.74 3.24001 418.82 0.600006 416.22 0.600006C412.78 0.600006 411.22 3.24001 411.22 6.96001C411.22 10.28 413.3 15.32 414.7 18.56C416.34 22.32 417.06 24.88 417.06 28.08C417.06 29.12 416.58 29.76 415.86 29.76C415.1 29.76 414.54 28.92 414.54 28.08V23.64H411.1V27.52C411.1 30.76 412.94 33.4 415.94 33.4C417.86 33.4 420.82 32.24 420.82 27.24Z" fill="black"/>
</svg>
