<svg width="288" height="58" viewBox="0 0 288 58" fill="none" xmlns="http://www.w3.org/2000/svg">
<path d="M27.1972 18.698V1.2H24.8572V19.01C24.8572 19.478 24.6232 19.764 24.2332 19.764C23.8172 19.764 23.5832 19.478 23.5832 19.01V14.044H21.2432V18.698C21.2432 20.804 22.5172 22.26 24.2332 22.26C25.9232 22.26 27.1972 20.804 27.1972 18.698Z" fill="black"/>
<path d="M36.7306 22L35.0146 1.2H31.9466L30.2566 22H32.4146L32.6486 18.23H34.0786L34.2346 22H36.7306ZM33.9226 15.578H32.8566L33.4806 7.284L33.9226 15.578Z" fill="black"/>
<path d="M45.9775 1.2H43.7675L42.7535 8.922L41.6615 1.2H39.3215L41.3755 12.77V22H43.8455V12.77L45.9775 1.2Z" fill="black"/>
<path d="M63.9955 22V1.2H60.9015L59.1855 12.952L57.8335 1.2H54.2715V22H56.4295V7.414L58.0675 22H59.7575L61.5775 7.44V22H63.9955Z" fill="black"/>
<path d="M73.0947 18.958V16.384H70.7287V19.166C70.7287 19.504 70.5207 19.79 70.2347 19.79C69.9747 19.79 69.7407 19.504 69.7407 19.166V9.494C69.7407 9.156 69.9747 8.87 70.2347 8.87C70.5207 8.87 70.7287 9.156 70.7287 9.494V12.276H73.0947V9.676C73.0947 7.726 71.8207 6.374 70.2347 6.374C68.6747 6.374 67.4007 7.726 67.4007 9.676V18.958C67.4007 20.934 68.6747 22.26 70.2347 22.26C71.8207 22.26 73.0947 20.934 73.0947 18.958Z" fill="black"/>
<path d="M82.3755 22V11.834H79.4115V14.07H79.9835V19.14C79.9835 19.608 79.7235 19.894 79.3075 19.894C78.9175 19.894 78.6575 19.608 78.6575 19.14V4.32C78.6575 3.852 78.8915 3.566 79.2815 3.566C79.6975 3.566 79.9055 3.852 79.9055 4.32V8.766H82.2715V4.502C82.2715 2.396 80.9715 0.940002 79.2815 0.940002C77.5915 0.940002 76.2915 2.396 76.2915 4.502V18.698C76.2915 21.038 77.3575 22.26 78.9955 22.26C79.6455 22.26 80.3215 22 80.6595 21.506L80.8675 22H82.3755Z" fill="black"/>
<path d="M91.4125 18.698V1.2H89.2025V18.88C89.2025 19.348 88.9685 19.634 88.5525 19.634C88.1625 19.634 87.9285 19.348 87.9285 18.88V1.2H85.6145V18.698C85.6145 20.804 86.8625 22.26 88.5525 22.26C90.2425 22.26 91.4125 20.804 91.4125 18.698Z" fill="black"/>
<path d="M97.3586 22V1.2H94.9146V22H97.3586Z" fill="black"/>
<path d="M107.461 22V1.2H105.459V12.744L103.379 1.2H100.909V22H102.937V10.638L105.433 22H107.461Z" fill="black"/>
<path d="M115.986 22V19.504H113.36V12.536H115.128V10.04H113.36V3.696H115.986V1.2H110.942V22H115.986Z" fill="black"/>
<path d="M125.126 18.256C125.126 16.072 124.06 13.368 122.942 10.716C121.798 7.986 121.33 7.128 121.33 4.372C121.33 3.748 121.746 3.436 122.084 3.436C122.422 3.436 122.812 3.748 122.812 4.372V7.544H125.074V4.762C125.074 2.656 123.826 0.940002 122.136 0.940002C119.9 0.940002 118.886 2.656 118.886 5.074C118.886 7.232 120.238 10.508 121.148 12.614C122.214 15.058 122.682 16.722 122.682 18.802C122.682 19.478 122.37 19.894 121.902 19.894C121.408 19.894 121.044 19.348 121.044 18.802V15.916H118.808V18.438C118.808 20.544 120.004 22.26 121.954 22.26C123.202 22.26 125.126 21.506 125.126 18.256Z" fill="black"/>
<path d="M134.398 18.256C134.398 16.072 133.332 13.368 132.214 10.716C131.07 7.986 130.602 7.128 130.602 4.372C130.602 3.748 131.018 3.436 131.356 3.436C131.694 3.436 132.084 3.748 132.084 4.372V7.544H134.346V4.762C134.346 2.656 133.098 0.940002 131.408 0.940002C129.172 0.940002 128.158 2.656 128.158 5.074C128.158 7.232 129.51 10.508 130.42 12.614C131.486 15.058 131.954 16.722 131.954 18.802C131.954 19.478 131.642 19.894 131.174 19.894C130.68 19.894 130.316 19.348 130.316 18.802V15.916H128.08V18.438C128.08 20.544 129.276 22.26 131.226 22.26C132.474 22.26 134.398 21.506 134.398 18.256Z" fill="black"/>
<path d="M168.368 1.2H166.158L165.144 12.146L164.234 1.2H162.804L161.92 12.146L160.984 1.2H158.592L160.698 22H162.596L163.532 12.042L164.442 22H166.236L168.368 1.2Z" fill="black"/>
<path d="M176.499 22V19.504H173.873V12.536H175.641V10.04H173.873V3.696H176.499V1.2H171.455V22H176.499Z" fill="black"/>
<path d="M186.263 22V1.2H184.261V12.744L182.181 1.2H179.711V22H181.739V10.638L184.235 22H186.263Z" fill="black"/>
<path d="M195.855 18.724V4.476C195.855 1.824 194.321 1.2 193.099 1.2H189.745V22H193.099C194.321 22 195.855 21.376 195.855 18.724ZM193.463 18.698C193.463 19.296 193.281 19.53 193.021 19.53H192.163V3.696H193.021C193.281 3.696 193.463 3.93 193.463 4.528V18.698Z" fill="black"/>
<path d="M201.792 22V1.2H199.348V22H201.792Z" fill="black"/>
<path d="M216.581 10.066V4.476C216.581 1.824 215.047 1.2 213.825 1.2H210.679V22H213.123V13.316H213.825C215.047 13.316 216.581 12.692 216.581 10.066ZM214.189 9.988C214.189 10.586 214.033 10.82 213.747 10.82H213.123V3.696H213.747C214.033 3.696 214.189 3.93 214.189 4.528V9.988Z" fill="black"/>
<path d="M224.944 22V19.504H222.318V12.536H224.086V10.04H222.318V3.696H224.944V1.2H219.9V22H224.944Z" fill="black"/>
<path d="M233.616 3.93V1.2H227.844V3.93H229.586V22H232.004V3.93H233.616Z" fill="black"/>
<path d="M241.837 22V19.504H239.211V12.536H240.979V10.04H239.211V3.696H241.837V1.2H236.793V22H241.837Z" fill="black"/>
<path d="M251.341 22C251.185 20.986 251.003 19.842 251.003 18.516V14.096C251.003 13.108 250.483 12.484 249.833 11.938C250.483 11.392 250.951 10.768 250.951 9.78V4.476C250.951 1.824 249.417 1.2 248.195 1.2H245.049V22H247.493V13.056H248.065C248.429 13.056 248.611 13.42 248.611 13.888V18.776C248.611 19.868 248.741 21.09 248.923 22H251.341ZM248.559 9.858C248.559 10.456 248.403 10.69 248.117 10.69H247.493V3.696H248.117C248.403 3.696 248.559 3.93 248.559 4.528V9.858Z" fill="black"/>
<path d="M260.375 18.256C260.375 16.072 259.309 13.368 258.191 10.716C257.047 7.986 256.579 7.128 256.579 4.372C256.579 3.748 256.995 3.436 257.333 3.436C257.671 3.436 258.061 3.748 258.061 4.372V7.544H260.323V4.762C260.323 2.656 259.075 0.940002 257.385 0.940002C255.149 0.940002 254.135 2.656 254.135 5.074C254.135 7.232 255.487 10.508 256.397 12.614C257.463 15.058 257.931 16.722 257.931 18.802C257.931 19.478 257.619 19.894 257.151 19.894C256.657 19.894 256.293 19.348 256.293 18.802V15.916H254.057V18.438C254.057 20.544 255.253 22.26 257.203 22.26C258.451 22.26 260.375 21.506 260.375 18.256Z" fill="black"/>
<path d="M6.59961 57L4.80561 45.742L6.31361 36.2H3.99961L2.59561 45.716V36.2H0.177612V57H2.59561V51.644L3.11561 49.018L4.15561 57H6.59961Z" fill="black"/>
<path d="M12.022 57V36.2H9.57803V57H12.022Z" fill="black"/>
<path d="M25.2965 57V36.2H22.2025L20.4865 47.952L19.1345 36.2H15.5725V57H17.7305V42.414L19.3685 57H21.0585L22.8785 42.44V57H25.2965Z" fill="black"/>
<path d="M34.6816 53.724V48.576C34.6816 47.588 34.2396 46.964 33.5636 46.418C34.2396 45.872 34.6816 45.248 34.6816 44.26V39.476C34.6816 36.824 33.1476 36.2 31.9256 36.2H28.7796V57H31.9256C33.1476 57 34.6816 56.376 34.6816 53.724ZM32.2896 44.468C32.2896 45.066 32.1336 45.3 31.8476 45.3H31.2236V38.696H31.8476C32.1336 38.696 32.2896 38.93 32.2896 39.528V44.468ZM32.2896 53.698C32.2896 54.296 32.1336 54.53 31.8476 54.53H31.2236V47.666H31.8476C32.1336 47.666 32.2896 47.9 32.2896 48.498V53.698Z" fill="black"/>
<path d="M43.1461 57V54.504H40.5201V47.536H42.2881V45.04H40.5201V38.696H43.1461V36.2H38.1021V57H43.1461Z" fill="black"/>
<path d="M52.6501 57C52.4941 55.986 52.3121 54.842 52.3121 53.516V49.096C52.3121 48.108 51.7921 47.484 51.1421 46.938C51.7921 46.392 52.2601 45.768 52.2601 44.78V39.476C52.2601 36.824 50.7261 36.2 49.5041 36.2H46.3581V57H48.8021V48.056H49.3741C49.7381 48.056 49.9201 48.42 49.9201 48.888V53.776C49.9201 54.868 50.0501 56.09 50.2321 57H52.6501ZM49.8681 44.858C49.8681 45.456 49.7121 45.69 49.4261 45.69H48.8021V38.696H49.4261C49.7121 38.696 49.8681 38.93 49.8681 39.528V44.858Z" fill="black"/>
<path d="M60.8007 57V54.504H58.2007V36.2H55.7567V57H60.8007Z" fill="black"/>
<path d="M68.9551 57V54.504H66.3291V47.536H68.0971V45.04H66.3291V38.696H68.9551V36.2H63.9111V57H68.9551Z" fill="black"/>
<path d="M78.3031 36.2H76.0931L75.0791 43.922L73.9871 36.2H71.6471L73.7011 47.77V57H76.1711V47.77L78.3031 36.2Z" fill="black"/>
<path d="M95.8791 36.2H93.6691L92.6551 47.146L91.7451 36.2H90.3151L89.4311 47.146L88.4951 36.2H86.1031L88.2091 57H90.1071L91.0431 47.042L91.9531 57H93.7471L95.8791 36.2Z" fill="black"/>
<path d="M105.076 57L103.36 36.2H100.292L98.6024 57H100.76L100.994 53.23H102.424L102.58 57H105.076ZM102.268 50.578H101.202L101.826 42.284L102.268 50.578Z" fill="black"/>
<path d="M113.231 57V54.504H110.631V36.2H108.187V57H113.231Z" fill="black"/>
<path d="M122.27 53.256C122.27 51.072 121.204 48.368 120.086 45.716C118.942 42.986 118.474 42.128 118.474 39.372C118.474 38.748 118.89 38.436 119.228 38.436C119.566 38.436 119.956 38.748 119.956 39.372V42.544H122.218V39.762C122.218 37.656 120.97 35.94 119.28 35.94C117.044 35.94 116.03 37.656 116.03 40.074C116.03 42.232 117.382 45.508 118.292 47.614C119.358 50.058 119.826 51.722 119.826 53.802C119.826 54.478 119.514 54.894 119.046 54.894C118.552 54.894 118.188 54.348 118.188 53.802V50.916H115.952V53.438C115.952 55.544 117.148 57.26 119.098 57.26C120.346 57.26 122.27 56.506 122.27 53.256Z" fill="black"/>
<path d="M131.723 57V36.2H129.305V45.43H128.031V36.2H125.613V57H128.031V48.056H129.305V57H131.723Z" fill="black"/>
<path d="M148.913 57L147.989 45.8H146.337L145.427 57H146.589L146.715 54.97H147.485L147.569 57H148.913ZM147.401 53.542H146.827L147.163 49.076L147.401 53.542Z" fill="black"/>
<path d="M154.116 57V45.8H153.038V52.016L151.918 45.8H150.588V57H151.68V50.882L153.024 57H154.116Z" fill="black"/>
<path d="M159.281 55.236V47.564C159.281 46.136 158.455 45.8 157.797 45.8H155.991V57H157.797C158.455 57 159.281 56.664 159.281 55.236ZM157.993 55.222C157.993 55.544 157.895 55.67 157.755 55.67H157.293V47.144H157.755C157.895 47.144 157.993 47.27 157.993 47.592V55.222Z" fill="black"/>
<path d="M181.78 57V36.2H178.686L176.97 47.952L175.618 36.2H172.056V57H174.214V42.414L175.852 57H177.542L179.362 42.44V57H181.78Z" fill="black"/>
<path d="M191.373 57L189.657 36.2H186.589L184.899 57H187.057L187.291 53.23H188.721L188.877 57H191.373ZM188.565 50.578H187.499L188.123 42.284L188.565 50.578Z" fill="black"/>
<path d="M199.944 38.93V36.2H194.172V38.93H195.914V57H198.332V38.93H199.944Z" fill="black"/>
<path d="M208.581 38.93V36.2H202.809V38.93H204.551V57H206.969V38.93H208.581Z" fill="black"/>
<path d="M217.868 57V36.2H215.45V45.43H214.176V36.2H211.758V57H214.176V48.056H215.45V57H217.868Z" fill="black"/>
<path d="M226.404 57V54.504H223.778V47.536H225.546V45.04H223.778V38.696H226.404V36.2H221.36V57H226.404Z" fill="black"/>
<path d="M238.898 36.2H236.688L235.674 47.146L234.764 36.2H233.334L232.45 47.146L231.514 36.2H229.122L231.228 57H233.126L234.062 47.042L234.972 57H236.766L238.898 36.2Z" fill="black"/>
<path d="M253.743 57L251.949 45.742L253.457 36.2H251.143L249.739 45.716V36.2H247.321V57H249.739V51.644L250.259 49.018L251.299 57H253.743Z" fill="black"/>
<path d="M261.688 57V54.504H259.062V47.536H260.83V45.04H259.062V38.696H261.688V36.2H256.644V57H261.688Z" fill="black"/>
<path d="M269.944 57V54.504H267.344V36.2H264.9V57H269.944Z" fill="black"/>
<path d="M278.098 57V54.504H275.498V36.2H273.054V57H278.098Z" fill="black"/>
<path d="M287.345 36.2H285.135L284.121 43.922L283.029 36.2H280.689L282.743 47.77V57H285.213V47.77L287.345 36.2Z" fill="black"/>
</svg>
